<svg style="display: block;" id="svg" version="1.1" width="400" height="400" xmlns="http://www.w3.org/2000/svg" xmlns:xlink="http://www.w3.org/1999/xlink"><g id="3" stlye="display:none"><path id="path0" d="M0.000 200.000 L 0.000 400.000 103.363 400.000 L 206.725 400.000 207.009 396.212 C 207.468 390.088,207.026 389.166,203.164 388.204 C 202.160 387.953,199.192 385.663,199.197 385.142 C 199.214 383.519,194.616 380.099,192.096 379.860 C 185.635 379.250,184.073 378.882,180.344 377.092 C 178.285 376.104,176.195 375.172,175.700 375.021 C 175.205 374.870,174.800 374.590,174.800 374.400 C 174.800 374.210,174.395 373.929,173.900 373.776 C 172.884 373.463,172.578 373.227,169.847 370.646 C 168.773 369.631,167.802 368.800,167.689 368.800 C 167.577 368.800,167.105 368.426,166.642 367.969 C 165.816 367.153,163.775 365.588,161.988 364.400 C 161.492 364.070,160.635 363.395,160.085 362.900 C 159.534 362.405,158.962 362.000,158.813 362.000 C 158.538 362.000,155.985 359.597,149.180 352.932 C 143.852 347.713,144.631 347.758,131.000 351.893 C 128.314 352.708,119.081 353.024,114.798 352.448 C 108.491 351.599,96.635 348.466,95.800 347.427 C 95.580 347.154,95.193 346.856,94.940 346.765 C 92.491 345.887,90.305 340.963,90.661 337.128 C 90.890 334.672,90.828 334.349,89.926 333.277 C 89.384 332.633,88.693 331.497,88.391 330.753 C 88.088 330.009,87.516 329.165,87.120 328.877 C 86.028 328.085,86.046 321.218,87.141 320.931 C 88.110 320.678,89.200 318.351,89.200 316.534 C 89.200 314.092,92.726 310.000,94.830 310.000 C 95.200 310.000,95.710 309.750,95.963 309.444 C 97.219 307.931,103.120 307.998,106.842 309.568 C 113.472 312.365,126.943 310.797,122.033 307.800 C 115.724 303.949,115.254 297.245,121.177 295.600 C 126.707 294.064,140.275 297.178,141.668 300.303 C 141.741 300.467,142.520 301.210,143.400 301.957 C 150.995 308.396,155.600 313.021,155.600 314.211 C 155.600 314.867,157.803 316.991,160.658 319.088 C 162.056 320.114,163.200 321.100,163.200 321.277 C 163.200 321.455,163.399 321.600,163.642 321.600 C 164.222 321.600,166.776 323.590,169.942 326.509 C 174.417 330.633,175.381 330.572,180.052 325.868 C 181.894 324.014,184.030 322.181,184.800 321.794 C 185.570 321.408,186.344 320.846,186.520 320.546 C 186.696 320.246,187.010 320.000,187.218 320.000 C 188.043 320.000,194.142 314.947,196.000 312.724 C 197.085 311.425,198.925 309.587,200.088 308.640 C 204.158 305.324,204.095 304.624,199.272 299.631 C 197.662 297.964,195.772 295.540,195.072 294.245 C 194.372 292.950,193.561 291.457,193.269 290.926 C 191.076 286.943,189.973 282.072,189.912 276.101 C 189.848 269.720,189.709 270.371,193.215 260.600 C 194.206 257.837,195.886 254.496,197.054 252.965 C 199.283 250.043,198.809 247.894,195.830 247.410 C 183.981 245.487,178.743 243.257,177.671 239.681 C 176.933 237.217,176.326 236.918,174.085 237.918 C 171.154 239.225,170.641 239.284,169.715 238.421 C 168.143 236.957,167.540 231.228,168.429 226.200 C 168.662 224.880,168.995 222.629,169.170 221.197 C 169.485 218.602,170.763 214.360,171.841 212.331 C 172.154 211.742,172.585 210.334,172.800 209.201 C 173.211 207.032,173.688 205.797,176.361 199.974 C 176.823 198.969,177.200 198.006,177.200 197.832 C 177.200 197.494,180.830 189.920,185.141 181.261 C 188.250 175.017,188.458 174.641,189.336 173.671 C 189.701 173.267,190.000 172.809,190.000 172.652 C 190.000 172.496,190.329 171.880,190.731 171.284 C 193.350 167.403,194.534 165.473,195.415 163.645 C 195.966 162.503,196.683 161.466,197.009 161.341 C 197.334 161.217,197.600 160.955,197.600 160.760 C 197.600 160.265,204.645 150.995,206.189 149.460 C 206.885 148.767,207.979 147.480,208.619 146.600 C 210.383 144.176,216.875 137.836,219.275 136.193 C 220.444 135.393,221.863 134.257,222.429 133.669 C 222.995 133.081,223.969 132.240,224.595 131.800 C 225.220 131.360,225.927 130.818,226.166 130.595 C 226.405 130.373,227.770 129.343,229.200 128.308 C 230.630 127.273,231.980 126.284,232.200 126.110 C 236.374 122.805,238.293 121.600,239.381 121.600 C 239.702 121.600,240.845 121.081,241.922 120.446 C 242.998 119.812,244.311 119.159,244.839 118.996 C 245.368 118.833,247.208 118.013,248.929 117.175 C 250.650 116.337,252.630 115.536,253.329 115.396 C 254.028 115.255,255.500 114.802,256.600 114.388 C 262.569 112.143,264.219 111.477,264.400 111.238 C 264.510 111.093,265.590 110.748,266.800 110.472 C 268.010 110.195,269.990 109.717,271.200 109.409 C 272.410 109.101,274.930 108.557,276.800 108.201 C 278.670 107.844,281.280 107.303,282.600 106.997 C 283.920 106.691,286.350 106.327,288.000 106.188 C 289.650 106.049,291.810 105.693,292.800 105.399 C 294.450 104.908,299.874 104.605,313.600 104.236 C 320.029 104.063,330.484 104.581,332.800 105.186 C 333.790 105.445,335.860 105.810,337.400 105.998 C 338.940 106.186,340.988 106.623,341.950 106.970 C 342.913 107.316,344.289 107.600,345.008 107.600 C 347.092 107.600,352.139 108.761,355.691 110.057 C 357.492 110.714,360.323 111.530,361.983 111.870 C 363.642 112.210,366.260 113.082,367.800 113.808 C 371.149 115.387,373.543 116.250,376.078 116.792 C 377.766 117.153,381.321 118.625,385.800 120.819 C 386.680 121.250,387.539 121.602,387.708 121.601 C 388.268 121.599,394.735 124.771,394.980 125.168 C 395.280 125.652,398.354 127.743,399.300 128.106 C 399.965 128.361,400.000 125.154,400.000 64.187 L 400.000 0.000 200.000 0.000 L 0.000 0.000 0.000 200.000 M248.800 192.187 C 248.470 192.273,245.590 192.636,242.400 192.994 C 236.143 193.696,232.613 194.294,231.624 194.820 C 231.281 195.002,230.510 195.255,229.911 195.381 C 228.103 195.761,227.200 197.080,227.200 199.341 C 227.200 201.284,226.631 205.131,225.327 212.000 C 224.972 213.870,224.540 216.604,224.368 218.076 C 224.195 219.548,223.852 221.129,223.606 221.589 C 223.360 222.049,222.911 223.830,222.609 225.547 C 222.003 228.993,220.012 235.347,218.787 237.738 C 218.354 238.584,218.000 239.509,218.000 239.795 C 218.000 240.081,216.424 241.909,214.497 243.857 C 212.570 245.806,209.786 249.110,208.310 251.200 C 206.834 253.290,205.383 255.270,205.086 255.600 C 203.908 256.908,202.440 259.966,201.439 263.200 C 200.860 265.070,200.208 266.960,199.991 267.400 C 199.380 268.640,198.933 275.305,199.247 278.513 C 199.760 283.770,204.783 292.384,209.335 295.815 C 213.258 298.772,215.044 300.055,215.600 300.317 C 216.899 300.929,220.273 303.002,221.600 304.003 C 223.358 305.329,228.360 307.720,231.047 308.518 C 232.170 308.851,234.058 309.582,235.244 310.143 C 236.430 310.703,238.480 311.519,239.800 311.955 C 244.855 313.626,247.895 314.716,248.689 315.141 C 249.704 315.684,256.278 317.508,259.000 318.001 C 260.100 318.201,262.170 318.718,263.600 319.151 C 269.664 320.987,274.187 321.650,288.525 322.804 C 291.124 323.013,293.410 323.283,293.605 323.403 C 295.160 324.364,334.428 324.217,341.200 323.225 C 342.630 323.015,346.500 322.577,349.800 322.250 C 355.832 321.652,360.395 320.521,363.738 318.794 C 364.584 318.357,365.431 318.000,365.620 318.000 C 365.810 318.000,367.458 317.282,369.283 316.403 C 371.107 315.525,372.831 314.805,373.113 314.803 C 373.394 314.802,373.724 314.541,373.846 314.224 C 373.967 313.908,374.579 313.536,375.206 313.399 C 375.832 313.261,376.559 312.890,376.821 312.574 C 377.083 312.258,377.509 312.000,377.767 312.000 C 378.486 312.000,384.351 307.387,386.600 305.052 C 388.489 303.092,389.347 302.094,393.111 297.482 C 395.012 295.153,395.729 293.122,395.122 291.789 C 394.653 290.759,394.243 290.574,389.000 289.020 C 387.020 288.433,383.420 286.996,381.000 285.825 C 375.967 283.391,374.835 282.906,372.578 282.219 C 368.582 281.002,367.112 277.818,368.600 273.600 C 368.930 272.665,369.200 271.403,369.200 270.796 C 369.200 269.735,369.614 268.162,371.245 263.022 C 371.660 261.715,372.000 260.302,372.000 259.883 C 372.000 259.464,372.263 258.554,372.585 257.860 C 373.563 255.751,375.133 251.117,375.586 249.000 C 375.821 247.900,376.182 246.640,376.387 246.200 C 377.084 244.704,378.309 239.412,378.795 235.800 C 379.061 233.820,379.536 231.030,379.850 229.600 C 382.149 219.125,381.339 216.970,374.457 215.251 C 372.618 214.792,370.188 213.984,369.057 213.456 C 365.296 211.700,364.225 211.268,361.000 210.206 C 359.240 209.627,357.233 208.893,356.540 208.576 C 355.846 208.259,355.025 208.000,354.715 208.000 C 354.404 208.000,353.405 207.640,352.494 207.200 C 351.584 206.760,350.481 206.400,350.043 206.400 C 349.605 206.400,349.148 206.240,349.028 206.045 C 348.907 205.850,347.340 205.294,345.545 204.809 C 343.750 204.325,341.903 203.783,341.440 203.605 C 340.978 203.428,338.260 202.883,335.400 202.396 C 332.540 201.909,329.840 201.363,329.400 201.184 C 328.960 201.004,327.610 200.660,326.400 200.418 C 321.393 199.417,318.098 198.726,316.400 198.322 C 312.578 197.411,311.659 197.221,307.200 196.423 C 304.670 195.971,300.710 195.413,298.400 195.185 C 296.090 194.956,293.030 194.603,291.600 194.399 C 283.028 193.181,251.284 191.540,248.800 192.187 M242.716 204.804 C 243.532 205.246,244.470 205.766,244.800 205.960 C 254.621 211.708,268.635 214.779,270.593 211.611 C 271.912 209.478,277.984 210.029,279.255 212.398 C 282.823 219.050,271.109 223.712,259.686 220.186 C 254.285 218.519,250.297 217.161,249.200 216.615 C 248.650 216.341,247.348 215.909,246.307 215.654 C 243.853 215.055,238.441 212.504,237.351 211.434 C 235.668 209.781,235.659 205.554,237.338 204.977 C 237.812 204.815,238.560 204.546,239.000 204.381 C 240.349 203.873,241.171 203.967,242.716 204.804 M248.545 227.455 C 251.551 230.460,248.077 235.667,244.324 233.780 C 239.908 231.558,241.097 226.471,246.045 226.416 C 247.088 226.404,247.785 226.694,248.545 227.455 M323.153 227.609 C 325.763 229.215,326.581 230.915,326.231 234.007 L 325.971 236.302 328.198 238.911 C 329.423 240.346,330.824 241.620,331.312 241.744 C 331.801 241.867,333.239 242.594,334.508 243.359 C 335.777 244.125,337.217 244.876,337.708 245.030 C 338.199 245.183,339.860 245.902,341.400 246.627 C 342.940 247.353,345.550 248.341,347.200 248.823 C 353.230 250.584,354.488 255.534,349.310 257.123 C 346.849 257.878,332.021 253.040,329.480 250.652 C 329.215 250.403,328.101 249.480,327.004 248.600 C 319.117 242.275,315.436 237.122,314.949 231.724 C 314.488 226.608,318.365 224.663,323.153 227.609 M333.905 257.999 C 337.749 260.342,336.376 265.600,331.920 265.600 C 329.700 265.600,328.894 265.033,328.375 263.109 C 327.229 258.853,330.440 255.886,333.905 257.999 M257.261 282.799 C 259.229 283.458,261.596 284.337,262.520 284.751 C 263.444 285.166,266.540 286.358,269.400 287.401 C 272.260 288.444,275.140 289.537,275.800 289.830 C 276.460 290.123,278.800 291.013,281.000 291.807 C 283.200 292.601,285.630 293.495,286.400 293.792 C 287.170 294.090,289.955 295.027,292.590 295.875 C 297.781 297.546,299.200 298.695,299.200 301.231 C 299.200 303.705,294.399 306.702,293.273 304.930 C 293.123 304.694,292.370 304.375,291.600 304.222 C 290.830 304.069,289.390 303.565,288.400 303.102 C 286.204 302.076,285.299 301.726,284.000 301.398 C 283.113 301.174,281.523 300.520,279.549 299.569 C 279.191 299.396,278.253 299.134,277.463 298.986 C 276.674 298.837,275.820 298.465,275.565 298.158 C 275.310 297.851,274.775 297.600,274.375 297.600 C 273.975 297.600,273.528 297.408,273.383 297.173 C 273.238 296.938,272.873 296.840,272.572 296.955 C 272.272 297.071,271.939 297.025,271.834 296.854 C 271.728 296.683,269.877 296.108,267.721 295.576 C 265.564 295.044,263.710 294.517,263.600 294.404 C 263.180 293.975,260.548 292.816,259.400 292.554 C 258.740 292.404,257.845 292.037,257.411 291.740 C 256.977 291.443,256.257 291.199,255.811 291.198 C 255.365 291.196,254.517 290.943,253.927 290.635 C 253.337 290.327,252.302 289.954,251.627 289.806 C 250.952 289.658,250.400 289.371,250.400 289.168 C 250.400 288.966,250.159 288.800,249.864 288.800 C 248.867 288.800,248.201 285.816,248.796 284.013 C 249.688 281.309,251.876 280.995,257.261 282.799 M124.593 300.411 C 124.269 300.936,125.893 302.269,127.200 302.552 C 130.099 303.180,131.975 308.181,131.017 312.726 C 129.893 318.059,130.250 320.217,132.671 322.713 C 133.961 324.043,133.839 327.400,132.500 327.400 C 132.014 327.400,131.612 327.535,131.608 327.700 C 131.603 327.865,131.600 328.177,131.600 328.392 C 131.600 328.608,132.072 328.903,132.649 329.048 C 137.090 330.163,139.528 333.767,136.742 335.098 C 135.618 335.635,129.778 335.107,129.054 334.404 C 128.585 333.948,124.487 334.349,123.000 334.996 C 122.340 335.283,120.849 335.644,119.687 335.798 C 118.054 336.015,117.245 336.388,116.131 337.439 C 115.337 338.188,114.353 338.800,113.944 338.800 C 113.535 338.800,113.200 338.964,113.200 339.165 C 113.200 341.483,105.126 342.947,102.343 341.134 C 101.256 340.426,97.320 339.347,96.998 339.669 C 96.555 340.112,97.275 341.089,98.518 341.732 C 99.223 342.097,100.070 342.550,100.400 342.738 C 106.078 345.988,112.024 347.122,118.727 346.234 C 121.077 345.922,124.890 345.459,127.200 345.204 C 129.514 344.949,132.198 344.390,133.176 343.959 C 134.153 343.530,136.511 343.016,138.416 342.819 C 140.321 342.622,142.492 342.206,143.240 341.894 C 144.720 341.277,146.483 341.634,147.712 342.800 C 149.400 344.402,153.692 347.887,154.855 348.600 C 155.213 348.820,157.264 350.440,159.412 352.200 C 165.042 356.813,166.029 357.555,166.911 357.835 C 167.345 357.973,168.197 358.651,168.804 359.343 C 169.412 360.034,171.054 361.207,172.454 361.949 C 173.854 362.691,175.540 363.687,176.200 364.163 C 176.860 364.638,177.850 365.247,178.400 365.515 C 178.950 365.783,180.300 366.540,181.400 367.196 C 189.475 372.013,190.020 371.717,186.421 364.474 C 183.782 359.165,182.210 355.468,181.804 353.619 C 181.657 352.947,180.830 350.973,179.968 349.232 C 179.106 347.491,178.028 345.196,177.573 344.133 C 176.716 342.130,175.362 340.400,174.652 340.400 C 174.427 340.400,173.603 339.977,172.822 339.459 C 172.040 338.942,169.240 337.108,166.600 335.384 C 162.519 332.719,160.788 331.309,156.152 326.871 C 155.849 326.581,155.599 326.221,155.598 326.071 C 155.597 325.922,154.321 324.450,152.763 322.800 C 149.972 319.844,148.392 317.694,146.179 313.840 C 144.121 310.255,141.496 308.039,134.600 304.061 C 128.304 300.430,125.266 299.322,124.593 300.411 M397.400 307.695 C 394.508 311.147,386.084 319.600,385.535 319.600 C 385.320 319.600,384.349 320.147,383.376 320.816 C 382.404 321.485,380.932 322.275,380.104 322.572 C 373.537 324.930,371.929 326.798,373.467 330.286 C 373.834 331.119,374.454 332.520,374.844 333.400 C 375.564 335.022,376.625 338.716,377.831 343.800 C 378.662 347.298,379.396 374.003,378.733 376.580 C 378.306 378.238,375.944 380.792,374.822 380.809 C 373.097 380.835,370.224 383.033,369.021 385.247 C 368.349 386.483,367.260 388.262,366.600 389.201 C 365.940 390.140,365.117 391.330,364.770 391.846 C 363.575 393.626,360.199 397.188,359.700 397.194 C 359.425 397.197,359.200 397.352,359.200 397.537 C 359.200 397.722,358.570 398.213,357.800 398.628 C 357.030 399.043,356.400 399.521,356.400 399.691 C 356.400 399.861,366.210 400.000,378.200 400.000 L 400.000 400.000 400.000 352.400 C 400.000 326.220,399.955 304.807,399.900 304.815 C 399.845 304.824,398.720 306.120,397.400 307.695 M104.400 314.627 C 104.400 314.934,104.836 315.294,105.368 315.428 C 105.900 315.561,106.895 316.285,107.578 317.035 C 108.938 318.530,109.503 318.718,109.857 317.795 C 110.178 316.959,109.370 316.101,107.972 315.794 C 107.328 315.652,106.800 315.410,106.800 315.256 C 106.800 315.102,106.260 314.772,105.600 314.522 C 104.624 314.154,104.400 314.174,104.400 314.627 M94.667 315.867 C 93.728 316.805,95.859 319.414,99.454 321.727 C 100.304 322.274,101.777 323.560,102.727 324.585 C 104.943 326.977,106.094 326.494,106.471 323.014 C 106.595 321.878,106.518 321.815,104.685 321.545 C 103.253 321.333,102.399 320.901,101.297 319.831 C 100.486 319.044,99.491 318.400,99.085 318.400 C 98.679 318.400,97.752 317.770,97.026 317.000 C 95.716 315.611,95.180 315.353,94.667 315.867 M121.871 317.500 C 121.334 318.037,120.622 318.176,118.816 318.098 C 116.497 317.998,114.800 319.002,114.800 320.475 C 114.800 320.677,114.350 321.505,113.800 322.314 C 113.250 323.123,112.800 324.172,112.800 324.644 C 112.800 325.116,112.542 325.717,112.226 325.979 C 111.910 326.241,111.526 327.025,111.373 327.722 C 111.220 328.418,110.870 329.351,110.595 329.794 C 109.814 331.053,109.470 332.910,110.054 332.715 C 110.323 332.626,110.736 332.211,110.971 331.793 C 111.648 330.595,112.109 330.191,113.500 329.578 C 114.215 329.263,114.800 328.871,114.800 328.708 C 114.800 327.710,117.947 327.200,124.103 327.200 L 130.508 327.200 129.454 326.371 C 128.874 325.915,128.400 325.352,128.400 325.119 C 128.400 324.887,127.789 324.021,127.043 323.195 C 126.146 322.203,125.589 321.100,125.399 319.946 C 125.085 318.030,124.235 316.800,123.224 316.800 C 122.865 316.800,122.256 317.115,121.871 317.500 M91.200 324.709 C 91.200 325.399,94.384 329.200,94.962 329.200 C 95.121 329.200,95.680 329.710,96.205 330.333 C 97.559 331.942,102.719 335.317,103.417 335.049 C 104.827 334.508,103.058 331.284,100.410 329.567 C 99.304 328.851,98.400 328.116,98.400 327.933 C 98.400 327.750,98.196 327.600,97.948 327.600 C 97.699 327.600,96.619 326.970,95.547 326.200 C 94.475 325.430,93.419 324.800,93.199 324.800 C 92.980 324.800,92.800 324.620,92.800 324.400 C 92.800 324.180,92.440 324.000,92.000 324.000 C 91.501 324.000,91.200 324.267,91.200 324.709 M121.600 332.800 C 121.150 333.091,121.350 333.188,122.400 333.188 C 123.170 333.188,124.070 333.013,124.400 332.800 C 124.850 332.509,124.650 332.412,123.600 332.412 C 122.830 332.412,121.930 332.587,121.600 332.800 M107.771 334.991 C 107.094 335.503,107.083 335.576,107.676 335.587 C 108.048 335.594,108.471 335.408,108.616 335.173 C 109.052 334.468,108.593 334.370,107.771 334.991 M302.622 340.364 C 302.286 340.908,302.762 341.940,304.572 344.600 C 307.269 348.561,307.404 348.939,306.823 350.895 C 303.589 361.791,296.300 365.103,287.000 359.904 C 282.498 357.387,281.868 357.031,279.400 355.607 C 272.083 351.386,276.157 359.700,285.523 368.105 C 287.992 370.320,287.827 372.594,285.159 373.132 C 282.136 373.741,281.358 373.373,277.261 369.400 C 269.346 361.726,263.000 357.321,263.000 359.502 C 263.000 360.022,266.995 364.579,269.800 367.259 C 270.680 368.100,271.685 369.061,272.034 369.394 C 272.382 369.727,272.832 370.009,273.034 370.019 C 273.235 370.030,274.210 371.032,275.200 372.246 C 276.190 373.459,277.554 374.796,278.231 375.216 C 281.092 376.991,280.964 380.800,278.043 380.800 C 277.049 380.800,272.456 378.718,270.608 377.431 C 269.189 376.441,268.088 375.774,267.000 375.245 C 266.560 375.031,265.241 373.855,264.068 372.632 C 262.896 371.409,261.759 370.298,261.541 370.164 C 260.477 369.506,263.595 374.497,265.749 376.899 C 267.097 378.403,268.263 379.816,268.341 380.040 C 268.795 381.347,271.861 383.686,275.377 385.406 C 279.025 387.191,295.573 386.808,300.400 384.828 C 303.643 383.497,306.644 383.526,308.732 384.908 C 309.640 385.508,310.612 386.004,310.891 386.009 C 311.171 386.014,311.850 386.370,312.400 386.800 C 312.950 387.230,313.580 387.592,313.800 387.605 C 314.020 387.617,314.920 387.975,315.800 388.400 C 316.680 388.825,317.805 389.179,318.300 389.186 C 318.795 389.194,319.200 389.359,319.200 389.553 C 319.200 389.748,319.605 390.007,320.100 390.129 C 321.395 390.448,327.389 392.623,327.979 392.987 C 328.733 393.453,335.318 394.408,339.579 394.670 C 344.061 394.946,351.179 393.911,352.862 392.739 C 353.446 392.333,354.074 392.000,354.257 392.000 C 354.441 392.000,356.264 390.245,358.308 388.100 C 362.714 383.478,362.876 382.793,359.600 382.626 C 358.390 382.564,356.230 382.136,354.800 381.673 C 353.370 381.211,351.120 380.547,349.800 380.198 C 344.903 378.902,343.455 378.423,341.413 377.424 C 340.262 376.861,339.014 376.400,338.640 376.400 C 338.266 376.400,337.474 376.155,336.880 375.856 C 336.286 375.557,335.095 375.204,334.232 375.071 C 333.370 374.937,332.560 374.670,332.432 374.477 C 331.743 373.435,327.791 371.965,326.338 372.211 C 320.816 373.143,313.201 367.162,313.594 362.200 C 314.205 354.487,313.556 349.741,311.746 348.680 C 311.446 348.504,311.200 348.117,311.200 347.820 C 311.200 346.117,303.307 339.256,302.622 340.364 M287.200 349.647 C 287.200 350.119,288.353 351.164,288.900 351.187 C 289.543 351.215,289.152 350.460,288.200 349.837 C 287.549 349.410,287.200 349.344,287.200 349.647 M224.667 352.267 C 224.520 352.413,224.411 352.908,224.425 353.367 C 224.449 354.133,224.482 354.123,224.834 353.242 C 225.226 352.263,225.144 351.789,224.667 352.267 M221.667 363.049 C 221.583 364.109,219.665 370.033,219.225 370.589 C 218.920 370.975,218.674 371.998,218.137 375.100 C 218.014 375.815,217.760 376.400,217.574 376.400 C 217.388 376.400,217.152 376.985,217.049 377.700 C 216.468 381.732,215.910 384.632,215.645 384.991 C 215.042 385.810,214.328 388.668,214.488 389.621 C 214.624 390.429,214.710 390.320,214.982 389.000 C 215.163 388.120,215.646 386.922,216.055 386.338 C 216.465 385.754,216.800 384.728,216.800 384.057 C 216.800 383.386,216.964 382.424,217.164 381.919 C 217.364 381.413,217.753 379.695,218.028 378.100 C 218.303 376.505,218.665 375.200,218.832 375.200 C 218.999 375.200,219.319 374.435,219.543 373.500 C 219.767 372.565,220.144 370.990,220.381 370.000 C 220.618 369.010,221.092 367.557,221.434 366.772 C 221.789 365.958,221.987 364.667,221.896 363.772 C 221.807 362.907,221.704 362.582,221.667 363.049 M205.200 374.924 C 205.200 375.516,205.369 376.000,205.576 376.000 C 206.257 376.000,206.339 375.404,205.765 374.619 C 205.227 373.884,205.200 373.899,205.200 374.924 M213.674 390.044 C 213.633 390.618,213.505 391.968,213.390 393.044 C 213.215 394.668,213.252 394.833,213.608 394.016 C 213.843 393.476,213.971 392.126,213.892 391.016 C 213.813 389.907,213.715 389.470,213.674 390.044 M305.990 394.626 C 305.776 395.190,305.600 396.169,305.600 396.800 C 305.600 397.431,305.424 398.410,305.210 398.974 L 304.820 400.000 312.710 399.980 L 320.600 399.960 318.400 398.868 C 317.190 398.267,314.474 396.836,312.364 395.688 C 307.999 393.312,306.580 393.075,305.990 394.626 M278.000 396.000 C 278.000 396.516,278.203 396.799,278.500 396.700 C 278.775 396.608,279.000 396.293,279.000 396.000 C 279.000 395.707,278.775 395.392,278.500 395.300 C 278.203 395.201,278.000 395.484,278.000 396.000 " stroke="none" fill="#ffffff" fill-rule="evenodd"></path><path id="path1" d="M305.991 105.091 C 305.223 105.630,303.766 105.838,299.402 106.034 C 296.321 106.173,292.270 106.565,290.400 106.907 C 288.530 107.248,285.793 107.647,284.317 107.794 C 282.841 107.940,280.231 108.420,278.517 108.860 C 276.803 109.301,274.230 109.913,272.800 110.222 C 268.999 111.042,265.514 112.014,264.600 112.508 C 263.684 113.003,260.203 114.283,255.000 116.038 C 251.735 117.139,249.449 118.118,243.360 121.026 C 242.238 121.562,241.133 122.000,240.904 122.000 C 239.947 122.000,237.185 123.533,234.971 125.293 C 233.667 126.329,230.196 129.027,227.259 131.289 C 224.321 133.550,220.897 136.210,219.651 137.200 C 216.627 139.601,210.957 145.228,208.566 148.200 C 207.505 149.520,206.299 150.960,205.887 151.400 C 205.475 151.840,203.847 153.973,202.269 156.140 C 200.691 158.307,198.732 160.875,197.916 161.846 C 197.100 162.817,196.090 164.385,195.672 165.330 C 195.254 166.276,194.256 167.981,193.456 169.121 C 192.655 170.260,192.000 171.344,192.000 171.530 C 192.000 171.715,191.251 172.932,190.336 174.234 C 188.684 176.582,183.311 186.978,181.567 191.200 C 181.067 192.410,180.330 193.878,179.929 194.462 C 179.528 195.046,179.200 195.699,179.200 195.913 C 179.200 196.350,177.460 200.421,176.566 202.074 C 176.247 202.664,175.455 204.824,174.806 206.874 C 173.041 212.445,172.043 215.263,171.659 215.757 C 171.470 216.001,171.093 217.370,170.822 218.800 C 170.551 220.230,170.075 222.383,169.764 223.584 C 169.026 226.443,168.987 235.956,169.711 236.946 C 170.435 237.936,171.581 238.001,173.194 237.142 C 176.380 235.446,178.408 236.471,179.176 240.165 C 179.468 241.566,183.433 243.988,185.448 243.995 C 186.134 243.998,187.778 244.346,189.102 244.769 C 190.425 245.191,192.383 245.652,193.454 245.793 C 199.641 246.606,201.043 248.812,198.100 253.105 C 197.275 254.308,196.469 255.497,196.309 255.746 C 195.828 256.494,193.200 263.867,193.200 264.466 C 193.200 264.772,192.957 265.377,192.660 265.811 C 191.477 267.540,190.652 273.811,191.144 277.333 C 191.396 279.130,191.601 281.191,191.601 281.913 C 191.600 283.544,192.840 287.296,194.634 291.089 C 195.385 292.677,196.000 294.130,196.000 294.316 C 196.000 294.503,196.405 295.017,196.900 295.459 C 204.463 302.211,205.639 305.507,201.624 308.707 C 200.593 309.528,198.772 311.259,197.575 312.554 C 194.400 315.989,191.871 318.400,191.442 318.400 C 191.236 318.400,190.782 318.669,190.434 318.998 C 188.928 320.418,187.176 321.651,185.908 322.181 C 185.158 322.494,182.909 324.469,180.910 326.571 C 177.128 330.546,175.917 331.339,174.337 330.876 C 173.308 330.574,168.800 327.275,168.800 326.824 C 168.800 326.464,164.106 322.696,162.797 322.006 C 162.249 321.717,161.710 321.360,161.600 321.213 C 161.490 321.067,160.349 320.160,159.064 319.198 C 157.779 318.236,155.998 316.375,155.107 315.063 C 152.992 311.949,151.145 309.922,148.200 307.484 C 146.880 306.392,144.804 304.576,143.586 303.449 C 141.156 301.200,138.399 299.200,137.727 299.200 C 137.491 299.200,137.096 298.956,136.849 298.659 C 136.602 298.361,134.882 297.624,133.027 297.020 C 124.343 294.196,116.335 297.214,118.425 302.524 C 119.001 303.986,120.729 306.000,121.408 306.000 C 122.616 306.000,125.273 309.117,124.807 309.987 C 123.198 312.994,114.268 312.878,103.800 309.715 C 98.027 307.970,91.113 311.723,90.104 317.149 C 89.582 319.959,88.669 321.517,87.351 321.848 C 86.073 322.169,85.909 326.408,87.140 327.277 C 87.548 327.565,88.193 328.406,88.575 329.148 C 88.957 329.889,89.909 331.385,90.690 332.473 C 92.057 334.374,92.102 334.548,91.873 337.004 C 91.265 343.510,96.350 348.317,105.000 349.411 C 106.100 349.550,107.810 349.908,108.800 350.206 C 114.425 351.900,126.507 352.031,132.000 350.457 C 144.963 346.743,144.276 346.590,153.023 355.123 C 156.475 358.491,159.772 361.540,160.350 361.898 C 162.373 363.154,168.829 368.106,169.312 368.773 C 170.240 370.053,175.387 373.648,177.988 374.833 C 179.425 375.487,181.274 376.382,182.098 376.822 C 183.533 377.588,185.959 378.050,192.320 378.768 C 195.350 379.110,195.801 379.362,198.455 382.200 C 199.072 382.860,199.589 383.580,199.605 383.800 C 199.660 384.591,202.723 386.902,204.829 387.743 C 207.708 388.892,207.987 389.557,207.994 395.300 L 208.000 400.000 209.532 400.000 L 211.063 400.000 211.501 395.100 C 211.847 391.228,212.243 389.345,213.391 386.125 C 214.190 383.884,214.996 380.824,215.182 379.325 C 215.368 377.826,215.842 375.700,216.235 374.600 C 216.628 373.500,217.651 370.530,218.509 368.000 C 219.367 365.470,220.342 362.770,220.677 362.000 C 221.264 360.647,223.200 351.376,223.200 349.917 C 223.200 347.668,220.255 350.283,218.390 354.188 C 217.966 355.074,217.465 356.070,217.275 356.400 C 216.182 358.299,209.376 371.914,207.852 375.250 C 206.492 378.228,203.600 378.371,203.600 375.461 C 203.600 374.852,197.224 362.062,196.786 361.791 C 196.587 361.668,195.985 360.176,195.448 358.476 C 194.158 354.393,192.853 351.494,190.701 347.930 C 189.728 346.319,187.991 343.020,186.840 340.600 C 185.690 338.180,184.490 335.722,184.174 335.138 C 182.594 332.216,184.496 329.629,191.177 325.614 C 192.911 324.572,194.841 323.320,195.465 322.832 C 196.089 322.345,197.950 320.959,199.600 319.753 C 201.250 318.546,204.241 315.948,206.246 313.980 C 210.457 309.846,209.979 310.023,212.352 311.726 C 213.369 312.455,215.820 313.922,217.800 314.985 C 219.780 316.048,222.300 317.497,223.400 318.206 C 224.500 318.914,227.775 320.254,230.678 321.182 C 237.120 323.243,237.155 323.294,235.697 328.400 C 235.163 330.270,234.587 332.472,234.418 333.293 C 234.249 334.114,233.932 335.014,233.713 335.293 C 233.495 335.572,232.377 338.590,231.228 342.000 C 230.079 345.410,228.433 349.616,227.569 351.346 C 226.706 353.077,226.000 354.714,226.000 354.985 C 226.000 355.256,225.720 356.039,225.377 356.726 C 225.034 357.413,224.649 358.656,224.520 359.488 C 224.392 360.319,224.032 361.506,223.721 362.125 C 223.409 362.743,222.820 365.266,222.412 367.730 C 222.003 370.195,221.391 372.929,221.050 373.806 C 220.710 374.683,219.966 377.290,219.397 379.600 C 218.178 384.553,217.877 385.604,216.992 388.000 C 216.247 390.017,214.000 398.622,214.000 399.459 C 214.000 399.902,216.273 400.000,226.536 400.000 L 239.072 400.000 239.536 398.981 C 239.791 398.421,239.998 397.026,239.995 395.881 C 239.992 394.737,240.336 392.360,240.760 390.600 C 241.838 386.122,243.201 379.507,243.193 378.796 C 243.189 378.468,243.654 376.670,244.226 374.800 C 244.798 372.930,245.607 370.230,246.024 368.800 C 246.441 367.370,247.307 364.580,247.949 362.600 C 248.591 360.620,249.241 358.100,249.394 357.000 C 249.547 355.900,249.991 354.190,250.381 353.200 C 251.992 349.112,254.082 343.275,255.178 339.800 C 255.991 337.224,256.761 335.189,258.260 331.655 L 258.830 330.309 262.567 330.546 C 264.622 330.677,266.821 330.982,267.452 331.225 C 268.083 331.468,269.910 331.920,271.511 332.229 C 273.112 332.538,274.948 333.063,275.591 333.395 C 276.523 333.877,278.429 334.000,284.993 334.000 C 294.550 334.000,294.194 333.822,292.853 337.942 C 292.378 339.404,291.991 340.893,291.994 341.251 C 291.997 341.609,291.708 342.599,291.350 343.451 C 290.993 344.303,290.588 346.691,290.450 348.758 C 290.123 353.677,289.829 353.870,286.325 351.471 C 283.218 349.344,275.415 346.551,273.911 347.028 C 272.572 347.452,270.149 349.054,269.534 349.920 C 268.457 351.439,267.338 351.710,265.152 350.984 C 260.112 349.310,255.608 352.314,255.603 357.353 C 255.600 359.484,255.477 359.823,254.298 360.953 C 251.828 363.319,251.348 366.265,252.809 370.085 C 253.632 372.233,253.876 372.603,258.300 378.396 C 259.675 380.196,260.800 381.947,260.800 382.287 C 260.800 385.677,271.739 392.809,277.931 393.456 C 281.007 393.777,281.403 394.316,281.025 397.658 L 280.760 400.000 292.362 400.000 L 303.964 400.000 304.164 398.700 C 304.275 397.985,304.472 396.590,304.602 395.600 C 305.037 392.304,307.174 391.684,311.077 393.724 C 318.496 397.600,320.974 398.800,321.565 398.800 C 321.940 398.800,322.596 399.064,323.024 399.387 C 323.674 399.879,326.270 399.977,339.009 399.987 L 354.219 400.000 357.639 397.442 C 361.220 394.763,361.981 393.973,364.600 390.217 C 365.480 388.955,366.417 387.691,366.682 387.408 C 366.947 387.125,367.645 386.017,368.234 384.947 C 369.788 382.118,370.284 381.663,373.565 380.046 C 377.011 378.347,378.052 376.881,378.053 373.725 C 378.053 362.115,377.193 345.501,376.434 342.475 C 375.975 340.646,375.600 338.882,375.600 338.555 C 375.600 338.229,375.240 337.216,374.800 336.306 C 374.360 335.395,374.000 334.492,374.000 334.300 C 374.000 334.108,373.563 333.017,373.028 331.875 C 370.527 326.533,372.158 323.895,379.121 322.021 C 380.068 321.766,381.193 321.207,381.621 320.779 C 382.049 320.351,382.497 320.000,382.616 320.000 C 383.981 320.000,391.734 312.980,395.388 308.435 C 396.553 306.986,398.068 305.271,398.753 304.625 L 400.000 303.450 399.987 216.625 L 399.974 129.800 397.538 128.200 C 392.410 124.832,390.919 123.973,388.400 122.937 C 386.970 122.350,384.360 121.246,382.600 120.485 C 379.499 119.145,374.935 117.555,372.716 117.043 C 372.120 116.905,370.140 116.099,368.316 115.251 C 366.492 114.402,364.370 113.593,363.600 113.452 C 361.837 113.129,359.073 112.308,353.057 110.322 C 350.449 109.460,346.933 108.598,345.245 108.405 C 342.271 108.066,337.876 107.334,332.301 106.250 C 330.817 105.962,329.272 105.427,328.869 105.063 C 327.740 104.041,307.455 104.066,305.991 105.091 M267.200 191.207 C 276.954 191.843,288.339 192.775,291.400 193.188 C 292.940 193.395,295.460 193.669,297.000 193.796 C 298.540 193.923,301.150 194.280,302.800 194.589 C 304.450 194.898,307.600 195.432,309.800 195.775 C 312.000 196.117,315.690 196.851,318.000 197.406 C 320.310 197.960,323.280 198.581,324.600 198.786 C 325.920 198.991,327.720 199.430,328.600 199.762 C 329.480 200.093,330.582 200.373,331.048 200.382 C 331.514 200.392,333.023 200.760,334.400 201.200 C 335.777 201.640,337.554 202.000,338.348 202.000 C 339.883 202.000,350.262 204.904,352.080 205.843 C 352.674 206.149,353.536 206.400,353.994 206.400 C 354.453 206.400,355.245 206.673,355.755 207.007 C 356.265 207.341,357.563 207.863,358.641 208.167 C 360.701 208.747,367.355 211.236,369.400 212.190 C 372.503 213.639,374.416 214.352,376.980 215.014 C 382.853 216.531,383.018 217.855,379.746 237.200 C 378.918 242.094,375.744 253.650,374.582 256.000 C 374.310 256.550,373.694 258.440,373.213 260.200 C 372.732 261.960,371.991 264.570,371.566 266.000 C 371.142 267.430,370.625 269.410,370.417 270.400 C 370.209 271.390,369.757 273.190,369.413 274.400 C 368.284 278.366,369.741 280.564,374.400 281.925 C 377.118 282.718,379.821 283.834,381.632 284.908 C 383.465 285.997,386.448 287.139,390.200 288.188 C 394.578 289.412,396.400 290.684,396.400 292.515 C 396.400 295.640,388.671 305.615,383.535 309.118 C 382.509 309.818,381.609 310.538,381.535 310.718 C 381.085 311.812,371.225 316.962,362.722 320.543 C 359.811 321.770,353.251 323.046,344.800 324.031 C 340.687 324.511,325.714 325.336,321.800 325.299 C 303.491 325.128,288.398 324.437,284.600 323.597 C 283.720 323.402,281.290 323.052,279.200 322.819 C 277.110 322.586,273.870 322.219,272.000 322.004 C 266.538 321.375,252.665 317.798,245.600 315.196 C 243.730 314.507,240.901 313.504,239.312 312.967 C 237.724 312.430,235.204 311.383,233.712 310.640 C 232.221 309.897,230.375 309.156,229.610 308.993 C 227.699 308.586,223.483 306.537,220.600 304.615 C 219.280 303.735,217.593 302.685,216.851 302.281 C 201.846 294.109,195.115 280.884,199.008 267.227 C 201.032 260.129,202.278 257.458,205.476 253.359 C 207.034 251.362,208.762 249.024,209.316 248.164 C 209.870 247.304,211.609 245.340,213.180 243.800 C 216.415 240.631,218.573 236.675,220.053 231.200 C 220.321 230.210,220.677 229.215,220.845 228.990 C 221.158 228.567,222.670 221.100,223.799 214.400 C 224.151 212.310,224.790 208.699,225.219 206.376 C 225.649 204.053,226.000 201.062,226.000 199.730 C 226.000 194.799,229.474 193.098,242.237 191.780 C 245.737 191.419,248.675 191.050,248.767 190.961 C 249.090 190.648,261.078 190.808,267.200 191.207 M239.000 204.826 C 233.018 206.569,236.945 212.440,245.800 214.995 C 247.120 215.375,248.529 215.858,248.931 216.066 C 250.109 216.677,260.028 219.860,262.413 220.391 C 271.712 222.466,280.789 218.745,279.218 213.503 C 278.211 210.142,275.435 209.714,270.680 212.186 C 265.922 214.660,258.064 213.053,246.386 207.215 C 240.938 204.491,240.565 204.371,239.000 204.826 M243.169 227.969 C 240.970 230.169,242.565 233.600,245.787 233.600 C 248.845 233.600,250.317 230.123,248.219 227.858 C 246.826 226.355,244.738 226.401,243.169 227.969 M317.000 227.283 C 314.507 228.713,314.685 232.933,317.453 238.033 C 319.483 241.772,327.902 249.508,332.471 251.832 C 339.926 255.624,348.677 257.525,350.729 255.798 C 353.433 253.523,351.814 250.796,346.800 249.180 C 342.589 247.822,337.189 245.507,334.787 244.030 C 333.790 243.416,332.125 242.539,331.087 242.080 C 330.049 241.621,329.196 241.100,329.191 240.922 C 329.186 240.745,328.360 239.700,327.356 238.600 L 325.529 236.600 325.775 234.200 C 326.274 229.350,320.850 225.075,317.000 227.283 M330.586 257.990 C 328.525 258.801,327.889 263.095,329.622 264.498 C 331.820 266.278,335.600 264.470,335.600 261.639 C 335.600 259.223,332.741 257.143,330.586 257.990 M250.160 282.706 C 247.829 284.262,248.937 288.736,251.824 289.428 C 252.471 289.583,253.180 289.841,253.400 290.000 C 253.620 290.159,254.340 290.411,255.000 290.559 C 256.063 290.797,257.471 291.367,259.695 292.459 C 260.077 292.646,260.624 292.800,260.910 292.800 C 261.196 292.800,262.096 293.139,262.909 293.554 C 263.722 293.968,266.055 294.716,268.094 295.216 C 270.132 295.716,271.890 296.254,272.000 296.412 C 272.110 296.570,272.830 296.832,273.600 296.994 C 274.370 297.156,275.270 297.519,275.600 297.800 C 275.930 298.081,276.830 298.442,277.600 298.602 C 278.370 298.762,279.180 299.031,279.400 299.200 C 279.620 299.369,280.385 299.633,281.100 299.786 C 281.815 299.938,282.400 300.209,282.400 300.387 C 282.400 300.565,283.052 300.833,283.849 300.983 C 284.646 301.132,285.591 301.401,285.949 301.580 C 288.268 302.738,290.371 303.600,290.877 303.600 C 291.201 303.600,291.592 303.725,291.745 303.878 C 292.025 304.158,292.443 304.279,294.533 304.682 C 296.988 305.156,299.234 302.621,298.423 300.293 C 297.714 298.261,296.939 297.734,292.670 296.382 C 287.828 294.849,278.053 291.370,275.800 290.378 C 274.920 289.990,271.770 288.764,268.800 287.654 C 265.830 286.543,261.467 284.907,259.105 284.017 C 254.923 282.442,251.341 281.917,250.160 282.706 M129.284 300.012 C 129.880 300.445,130.568 300.800,130.813 300.800 C 131.323 300.800,133.767 302.184,137.800 304.756 C 142.539 307.778,145.371 310.533,147.651 314.339 C 151.753 321.190,159.680 329.683,165.600 333.573 C 167.250 334.658,168.885 335.782,169.234 336.072 C 169.890 336.619,170.692 337.110,173.155 338.477 C 176.441 340.301,177.103 340.861,177.900 342.491 C 180.427 347.662,181.977 351.135,182.233 352.200 C 182.727 354.256,188.387 366.718,189.409 368.000 C 190.347 369.177,190.373 370.373,189.474 371.003 C 188.034 372.012,187.017 371.689,181.500 368.474 C 180.089 367.652,178.568 366.784,176.355 365.538 C 175.830 365.242,175.084 364.746,174.697 364.436 C 173.861 363.764,172.641 363.054,171.000 362.286 C 170.340 361.977,169.544 361.415,169.230 361.037 C 168.917 360.659,167.657 359.696,166.430 358.896 C 164.244 357.470,159.867 354.015,156.631 351.161 C 155.734 350.370,154.010 349.064,152.800 348.260 C 151.590 347.456,149.520 345.887,148.200 344.773 C 146.074 342.979,145.640 342.772,144.400 342.960 C 143.630 343.077,141.650 343.341,140.000 343.546 C 138.350 343.752,135.560 344.376,133.800 344.933 C 129.549 346.280,127.103 346.693,121.600 346.995 C 119.070 347.134,116.229 347.440,115.287 347.675 C 111.729 348.561,103.178 345.788,96.485 341.576 C 93.580 339.748,96.529 337.669,99.943 339.137 C 103.443 340.643,107.180 341.300,109.200 340.764 C 110.959 340.298,114.800 337.175,114.800 336.211 C 114.800 333.033,126.622 330.097,128.518 332.804 C 129.202 333.781,132.801 334.915,134.145 334.578 C 136.058 334.098,135.684 331.245,133.557 330.086 C 132.865 329.709,131.801 328.995,131.192 328.500 C 129.863 327.420,118.595 327.114,116.746 328.108 C 113.770 329.707,109.635 333.501,109.587 334.676 C 109.456 337.868,103.553 337.243,98.444 333.497 C 95.575 331.393,90.582 326.405,90.228 325.288 C 89.514 323.038,91.831 322.050,93.869 323.735 C 94.491 324.249,96.348 325.543,97.996 326.611 C 100.749 328.396,104.800 332.100,104.800 332.834 C 104.800 333.258,105.976 334.400,106.413 334.400 C 106.955 334.400,108.400 332.723,108.400 332.093 C 108.400 331.788,109.005 330.247,109.744 328.669 C 110.483 327.091,111.329 325.170,111.624 324.400 C 111.919 323.630,112.755 322.064,113.480 320.919 C 114.206 319.775,114.800 318.663,114.800 318.448 C 114.800 317.404,116.880 316.426,118.598 316.662 C 119.788 316.825,120.724 316.697,121.622 316.249 C 124.005 315.060,125.356 315.693,125.830 318.220 C 126.104 319.682,127.076 321.787,128.001 322.924 C 128.214 323.186,128.857 323.985,129.430 324.700 C 130.002 325.415,130.839 326.000,131.288 326.000 C 132.471 326.000,132.040 323.238,130.587 321.512 L 129.497 320.216 129.776 313.608 C 130.107 305.795,129.818 304.974,126.116 303.203 C 124.969 302.654,123.803 301.780,123.525 301.260 C 122.309 298.988,126.597 298.059,129.284 300.012 M107.655 314.300 C 111.554 316.152,112.033 317.100,109.990 318.925 L 108.660 320.114 107.884 319.157 C 107.457 318.631,106.903 317.911,106.654 317.558 C 106.404 317.204,105.426 316.521,104.481 316.039 C 102.683 315.124,102.158 314.408,102.545 313.400 C 102.909 312.450,104.259 312.687,107.655 314.300 M97.211 315.918 C 98.079 316.753,99.459 317.677,100.275 317.973 C 101.092 318.268,102.048 318.865,102.400 319.299 C 102.848 319.853,103.750 320.165,105.420 320.344 C 108.092 320.631,108.759 321.782,107.429 323.812 C 107.083 324.340,106.800 325.048,106.800 325.386 C 106.800 326.078,105.417 327.600,104.789 327.600 C 104.562 327.600,103.440 326.593,102.294 325.361 C 101.148 324.130,99.488 322.698,98.605 322.180 C 94.798 319.946,92.608 316.592,94.030 315.170 C 95.092 314.108,95.403 314.181,97.211 315.918 M365.566 330.705 C 367.011 332.150,368.227 335.478,369.472 341.397 C 370.027 344.039,370.598 346.380,370.741 346.600 C 371.165 347.254,371.904 373.729,371.520 374.500 C 371.079 375.386,368.098 375.444,364.626 374.634 C 363.292 374.323,361.030 373.854,359.600 373.593 C 358.170 373.331,356.100 372.790,355.000 372.390 C 353.900 371.990,351.560 371.283,349.800 370.819 C 346.621 369.979,344.891 369.359,341.774 367.940 C 340.879 367.533,339.926 367.200,339.655 367.200 C 339.385 367.200,338.318 366.750,337.285 366.200 C 336.252 365.650,335.205 365.200,334.959 365.200 C 334.110 365.200,329.397 362.881,328.716 362.128 C 327.890 361.216,327.598 349.899,328.363 348.470 C 328.603 348.020,328.800 346.689,328.800 345.510 C 328.800 344.332,329.083 342.295,329.428 340.984 C 329.781 339.643,329.956 337.954,329.827 337.124 C 329.525 335.179,329.732 335.091,334.758 335.024 C 337.091 334.993,340.440 334.665,342.200 334.294 C 343.960 333.924,347.709 333.362,350.531 333.045 C 353.931 332.663,355.893 332.259,356.348 331.847 C 356.725 331.506,358.060 331.106,359.315 330.958 C 360.570 330.811,361.913 330.451,362.299 330.158 C 363.383 329.335,364.360 329.498,365.566 330.705 M325.200 335.782 C 325.200 336.103,324.634 337.318,323.942 338.482 C 323.223 339.692,322.361 342.035,321.930 343.948 C 320.880 348.614,320.307 349.534,319.247 348.257 C 318.908 347.848,318.990 347.111,319.578 345.268 C 320.008 343.923,320.483 342.162,320.635 341.355 C 321.044 339.171,322.312 335.903,322.892 335.535 C 323.740 334.996,325.200 335.153,325.200 335.782 M307.862 342.564 C 314.654 349.648,315.494 351.422,315.016 357.684 C 314.581 363.376,314.586 364.819,315.040 365.122 C 315.270 365.275,315.570 365.703,315.706 366.072 C 316.612 368.533,321.568 370.853,325.955 370.871 C 327.410 370.878,328.780 371.021,329.000 371.190 C 330.520 372.357,335.583 374.607,338.600 375.456 C 340.580 376.013,342.390 376.626,342.623 376.819 C 343.046 377.170,344.631 377.650,351.400 379.480 C 357.787 381.207,358.165 381.292,360.600 381.548 C 364.571 381.965,364.321 383.074,358.996 388.673 C 352.792 395.198,352.223 395.405,340.600 395.383 L 331.800 395.367 326.309 393.492 C 323.289 392.462,320.499 391.446,320.109 391.235 C 319.719 391.024,318.050 390.275,316.400 389.571 C 314.750 388.867,311.551 387.418,309.291 386.351 L 305.182 384.410 303.491 385.041 C 294.347 388.452,278.238 388.728,273.200 385.559 C 270.773 384.032,270.024 383.426,268.700 381.913 C 266.467 379.363,263.056 375.194,262.600 374.459 C 262.380 374.104,261.681 373.023,261.047 372.057 C 258.380 367.996,259.425 365.531,262.284 369.137 C 265.337 372.986,267.814 374.857,274.075 378.044 C 274.886 378.456,275.661 378.975,275.798 379.197 C 276.173 379.804,278.235 379.681,278.784 379.019 C 279.405 378.271,278.941 376.780,277.849 376.012 C 274.265 373.491,263.037 361.860,262.291 359.897 C 261.045 356.614,265.029 356.935,268.312 360.381 C 268.690 360.779,270.170 361.989,271.600 363.070 C 273.030 364.152,275.709 366.513,277.554 368.318 C 281.237 371.922,283.180 372.902,285.001 372.072 C 286.545 371.369,286.209 370.262,283.744 367.932 C 277.623 362.146,274.160 356.723,275.171 354.505 C 275.947 352.801,276.992 352.986,281.400 355.611 C 282.500 356.265,284.120 357.170,285.000 357.620 C 285.880 358.071,287.753 359.060,289.161 359.820 C 295.473 363.221,301.005 361.181,304.400 354.200 C 306.395 350.097,306.426 348.887,304.598 346.397 C 302.248 343.195,301.331 340.029,302.434 338.926 C 303.230 338.130,304.299 338.846,307.862 342.564 M321.350 361.692 C 321.686 362.225,321.634 362.538,321.124 363.047 C 319.926 364.245,318.138 362.679,319.218 361.378 C 319.840 360.628,320.766 360.765,321.350 361.692 " stroke="none" fill="#030304" fill-rule="evenodd"></path><path id="path2" d="M316.691 104.289 C 317.401 104.377,318.661 104.379,319.491 104.292 C 320.321 104.205,319.740 104.133,318.200 104.131 C 316.660 104.129,315.981 104.200,316.691 104.289 M297.800 104.827 C 295.380 104.952,292.950 105.242,292.400 105.470 C 291.850 105.699,289.960 106.010,288.200 106.160 C 286.440 106.310,283.920 106.685,282.600 106.993 C 281.280 107.301,278.670 107.844,276.800 108.201 C 274.930 108.557,272.410 109.101,271.200 109.409 C 269.990 109.717,268.010 110.195,266.800 110.472 C 265.590 110.748,264.510 111.093,264.400 111.238 C 264.219 111.477,262.569 112.143,256.600 114.388 C 255.500 114.802,254.028 115.255,253.329 115.396 C 252.630 115.536,250.650 116.337,248.929 117.175 C 247.208 118.013,245.368 118.833,244.839 118.996 C 244.311 119.159,242.998 119.812,241.922 120.446 C 240.845 121.081,239.702 121.600,239.381 121.600 C 238.293 121.600,236.374 122.805,232.200 126.110 C 231.980 126.284,230.630 127.273,229.200 128.308 C 227.770 129.343,226.405 130.373,226.166 130.595 C 225.927 130.818,225.220 131.360,224.595 131.800 C 223.969 132.240,222.995 133.081,222.429 133.669 C 221.863 134.257,220.444 135.393,219.275 136.193 C 216.875 137.836,210.383 144.176,208.619 146.600 C 207.979 147.480,206.885 148.767,206.189 149.460 C 204.645 150.995,197.600 160.265,197.600 160.760 C 197.600 160.955,197.334 161.217,197.009 161.341 C 196.683 161.466,195.966 162.503,195.415 163.645 C 194.534 165.473,193.350 167.403,190.731 171.284 C 190.329 171.880,190.000 172.496,190.000 172.652 C 190.000 172.809,189.701 173.267,189.336 173.671 C 188.458 174.641,188.250 175.017,185.141 181.261 C 180.830 189.920,177.200 197.494,177.200 197.832 C 177.200 198.006,176.823 198.969,176.361 199.974 C 173.688 205.797,173.211 207.032,172.800 209.201 C 172.585 210.334,172.154 211.742,171.841 212.331 C 170.763 214.360,169.485 218.602,169.170 221.197 C 168.995 222.629,168.662 224.880,168.429 226.200 C 167.540 231.228,168.143 236.957,169.715 238.421 C 170.641 239.284,171.154 239.225,174.085 237.918 C 176.326 236.918,176.933 237.217,177.671 239.681 C 178.743 243.257,183.981 245.487,195.830 247.410 C 198.809 247.894,199.283 250.043,197.054 252.965 C 195.886 254.496,194.206 257.837,193.215 260.600 C 189.709 270.371,189.848 269.720,189.912 276.101 C 189.973 282.072,191.076 286.943,193.269 290.926 C 193.561 291.457,194.372 292.950,195.072 294.245 C 195.772 295.540,197.662 297.964,199.272 299.631 C 204.095 304.624,204.158 305.324,200.088 308.640 C 198.925 309.587,197.085 311.425,196.000 312.724 C 194.142 314.947,188.043 320.000,187.218 320.000 C 187.010 320.000,186.696 320.246,186.520 320.546 C 186.344 320.846,185.570 321.408,184.800 321.794 C 184.030 322.181,181.894 324.014,180.052 325.868 C 175.381 330.572,174.417 330.633,169.942 326.509 C 166.776 323.590,164.222 321.600,163.642 321.600 C 163.399 321.600,163.200 321.455,163.200 321.277 C 163.200 321.100,162.056 320.114,160.658 319.088 C 157.803 316.991,155.600 314.867,155.600 314.211 C 155.600 313.021,150.995 308.396,143.400 301.957 C 142.520 301.210,141.741 300.467,141.668 300.303 C 141.393 299.687,134.685 296.297,132.686 295.765 C 119.155 292.163,111.178 301.175,122.033 307.800 C 126.943 310.797,113.472 312.365,106.842 309.568 C 103.120 307.998,97.219 307.931,95.963 309.444 C 95.710 309.750,95.200 310.000,94.830 310.000 C 92.726 310.000,89.200 314.092,89.200 316.534 C 89.200 318.351,88.110 320.678,87.141 320.931 C 86.245 321.166,86.150 322.000,87.019 322.000 C 88.491 322.000,90.400 318.300,90.400 315.447 C 90.400 312.072,99.177 308.317,103.800 309.715 C 114.268 312.878,123.198 312.994,124.807 309.987 C 125.273 309.117,122.616 306.000,121.408 306.000 C 120.729 306.000,119.001 303.986,118.425 302.524 C 116.335 297.214,124.343 294.196,133.027 297.020 C 134.882 297.624,136.602 298.361,136.849 298.659 C 137.096 298.956,137.491 299.200,137.727 299.200 C 138.399 299.200,141.156 301.200,143.586 303.449 C 144.804 304.576,146.880 306.392,148.200 307.484 C 151.145 309.922,152.992 311.949,155.107 315.063 C 155.998 316.375,157.779 318.236,159.064 319.198 C 160.349 320.160,161.490 321.067,161.600 321.213 C 161.710 321.360,162.249 321.717,162.797 322.006 C 164.106 322.696,168.800 326.464,168.800 326.824 C 168.800 327.275,173.308 330.574,174.337 330.876 C 175.917 331.339,177.128 330.546,180.910 326.571 C 182.909 324.469,185.158 322.494,185.908 322.181 C 187.176 321.651,188.928 320.418,190.434 318.998 C 190.782 318.669,191.236 318.400,191.442 318.400 C 191.871 318.400,194.400 315.989,197.575 312.554 C 198.772 311.259,200.593 309.528,201.624 308.707 C 205.639 305.507,204.463 302.211,196.900 295.459 C 196.405 295.017,196.000 294.503,196.000 294.316 C 196.000 294.130,195.385 292.677,194.634 291.089 C 192.840 287.296,191.600 283.544,191.601 281.913 C 191.601 281.191,191.396 279.130,191.144 277.333 C 190.652 273.811,191.477 267.540,192.660 265.811 C 192.957 265.377,193.200 264.772,193.200 264.466 C 193.200 263.867,195.828 256.494,196.309 255.746 C 196.469 255.497,197.275 254.308,198.100 253.105 C 201.043 248.812,199.641 246.606,193.454 245.793 C 192.383 245.652,190.425 245.191,189.102 244.769 C 187.778 244.346,186.134 243.998,185.448 243.995 C 183.433 243.988,179.468 241.566,179.176 240.165 C 178.408 236.471,176.380 235.446,173.194 237.142 C 171.581 238.001,170.435 237.936,169.711 236.946 C 168.987 235.956,169.026 226.443,169.764 223.584 C 170.075 222.383,170.551 220.230,170.822 218.800 C 171.093 217.370,171.470 216.001,171.659 215.757 C 172.043 215.263,173.041 212.445,174.806 206.874 C 175.455 204.824,176.247 202.664,176.566 202.074 C 177.460 200.421,179.200 196.350,179.200 195.913 C 179.200 195.699,179.528 195.046,179.929 194.462 C 180.330 193.878,181.067 192.410,181.567 191.200 C 183.311 186.978,188.684 176.582,190.336 174.234 C 191.251 172.932,192.000 171.715,192.000 171.530 C 192.000 171.344,192.655 170.260,193.456 169.121 C 194.256 167.981,195.254 166.276,195.672 165.330 C 196.090 164.385,197.100 162.817,197.916 161.846 C 198.732 160.875,200.691 158.307,202.269 156.140 C 203.847 153.973,205.475 151.840,205.887 151.400 C 206.299 150.960,207.505 149.520,208.566 148.200 C 210.957 145.228,216.627 139.601,219.651 137.200 C 220.897 136.210,224.321 133.550,227.259 131.289 C 230.196 129.027,233.667 126.329,234.971 125.293 C 237.185 123.533,239.947 122.000,240.904 122.000 C 241.133 122.000,242.238 121.562,243.360 121.026 C 249.449 118.118,251.735 117.139,255.000 116.038 C 260.203 114.283,263.684 113.003,264.600 112.508 C 265.514 112.014,268.999 111.042,272.800 110.222 C 274.230 109.913,276.803 109.301,278.517 108.860 C 280.231 108.420,282.841 107.940,284.317 107.794 C 285.793 107.647,288.530 107.248,290.400 106.907 C 292.270 106.565,296.321 106.173,299.402 106.034 C 303.848 105.834,305.210 105.635,306.002 105.070 C 307.131 104.265,308.125 104.294,297.800 104.827 M328.872 105.016 C 329.241 105.400,330.771 105.953,332.272 106.245 C 337.883 107.336,342.267 108.065,345.245 108.405 C 346.933 108.598,350.449 109.460,353.057 110.322 C 359.073 112.308,361.837 113.129,363.600 113.452 C 364.370 113.593,366.492 114.402,368.316 115.251 C 370.140 116.099,372.120 116.906,372.716 117.045 C 374.911 117.554,379.061 118.961,381.200 119.920 C 382.410 120.462,384.875 121.491,386.677 122.206 C 390.301 123.643,393.853 125.604,397.200 128.014 C 398.410 128.886,399.535 129.599,399.700 129.599 C 400.308 129.601,399.977 128.366,399.300 128.106 C 398.354 127.743,395.280 125.652,394.980 125.168 C 394.735 124.771,388.268 121.599,387.708 121.601 C 387.539 121.602,386.680 121.250,385.800 120.819 C 381.321 118.625,377.766 117.153,376.078 116.792 C 373.543 116.250,371.149 115.387,367.800 113.808 C 366.260 113.082,363.642 112.210,361.983 111.870 C 360.323 111.530,357.492 110.714,355.691 110.057 C 352.139 108.761,347.092 107.600,345.008 107.600 C 344.289 107.600,342.913 107.316,341.950 106.970 C 340.988 106.623,338.940 106.186,337.400 105.998 C 335.860 105.810,333.790 105.451,332.800 105.199 C 329.144 104.271,328.109 104.222,328.872 105.016 M248.767 190.961 C 248.675 191.050,245.737 191.419,242.237 191.780 C 229.474 193.098,226.000 194.799,226.000 199.730 C 226.000 201.062,225.649 204.053,225.219 206.376 C 224.790 208.699,224.151 212.310,223.799 214.400 C 222.670 221.100,221.158 228.567,220.845 228.990 C 220.677 229.215,220.321 230.210,220.053 231.200 C 218.573 236.675,216.415 240.631,213.180 243.800 C 211.609 245.340,209.870 247.304,209.316 248.164 C 208.762 249.024,207.034 251.362,205.476 253.359 C 195.291 266.412,195.465 283.518,205.886 293.800 C 209.244 297.113,213.724 300.578,216.851 302.281 C 217.593 302.685,219.280 303.735,220.600 304.615 C 223.483 306.537,227.699 308.586,229.610 308.993 C 230.375 309.156,232.221 309.897,233.712 310.640 C 235.204 311.383,237.724 312.430,239.312 312.967 C 240.901 313.504,243.730 314.507,245.600 315.196 C 252.665 317.798,266.538 321.375,272.000 322.004 C 273.870 322.219,277.110 322.586,279.200 322.819 C 281.290 323.052,283.720 323.402,284.600 323.597 C 288.398 324.437,303.491 325.128,321.800 325.299 C 335.771 325.431,356.969 322.967,362.722 320.543 C 371.225 316.962,381.085 311.812,381.535 310.718 C 381.609 310.538,382.509 309.818,383.535 309.118 C 388.671 305.615,396.400 295.640,396.400 292.515 C 396.400 290.684,394.578 289.412,390.200 288.188 C 386.448 287.139,383.465 285.997,381.632 284.908 C 379.821 283.834,377.118 282.718,374.400 281.925 C 369.741 280.564,368.284 278.366,369.413 274.400 C 369.757 273.190,370.209 271.390,370.417 270.400 C 370.625 269.410,371.142 267.430,371.566 266.000 C 371.991 264.570,372.732 261.960,373.213 260.200 C 373.694 258.440,374.310 256.550,374.582 256.000 C 375.744 253.650,378.918 242.094,379.746 237.200 C 383.018 217.855,382.853 216.531,376.980 215.014 C 374.416 214.352,372.503 213.639,369.400 212.190 C 367.355 211.236,360.701 208.747,358.641 208.167 C 357.563 207.863,356.265 207.341,355.755 207.007 C 355.245 206.673,354.453 206.400,353.994 206.400 C 353.536 206.400,352.674 206.149,352.080 205.843 C 350.262 204.904,339.883 202.000,338.348 202.000 C 337.554 202.000,335.777 201.640,334.400 201.200 C 333.023 200.760,331.514 200.392,331.048 200.382 C 330.582 200.373,329.480 200.093,328.600 199.762 C 327.720 199.430,325.920 198.991,324.600 198.786 C 323.280 198.581,320.310 197.960,318.000 197.406 C 315.690 196.851,312.000 196.117,309.800 195.775 C 307.600 195.432,304.450 194.898,302.800 194.589 C 301.150 194.280,298.540 193.923,297.000 193.796 C 295.460 193.669,292.940 193.395,291.400 193.188 C 288.339 192.775,276.954 191.843,267.200 191.207 C 261.078 190.808,249.090 190.648,248.767 190.961 M278.800 193.215 C 284.410 193.663,290.170 194.196,291.600 194.399 C 293.030 194.603,296.090 194.956,298.400 195.185 C 300.710 195.413,304.670 195.971,307.200 196.423 C 311.659 197.221,312.578 197.411,316.400 198.322 C 318.098 198.726,321.393 199.417,326.400 200.418 C 327.610 200.660,328.960 201.004,329.400 201.184 C 329.840 201.363,332.540 201.909,335.400 202.396 C 338.260 202.883,340.978 203.428,341.440 203.605 C 341.903 203.783,343.750 204.325,345.545 204.809 C 347.340 205.294,348.907 205.850,349.028 206.045 C 349.148 206.240,349.605 206.400,350.043 206.400 C 350.481 206.400,351.584 206.760,352.494 207.200 C 353.405 207.640,354.404 208.000,354.715 208.000 C 355.025 208.000,355.846 208.259,356.540 208.576 C 357.233 208.893,359.240 209.627,361.000 210.206 C 364.225 211.268,365.296 211.700,369.057 213.456 C 370.188 213.984,372.618 214.792,374.457 215.251 C 381.339 216.970,382.149 219.125,379.850 229.600 C 379.536 231.030,379.061 233.820,378.795 235.800 C 378.309 239.412,377.084 244.704,376.387 246.200 C 376.182 246.640,375.821 247.900,375.586 249.000 C 375.133 251.117,373.563 255.751,372.585 257.860 C 372.263 258.554,372.000 259.464,372.000 259.883 C 372.000 260.302,371.660 261.715,371.245 263.022 C 369.614 268.162,369.200 269.735,369.200 270.796 C 369.200 271.403,368.930 272.665,368.600 273.600 C 367.112 277.818,368.582 281.002,372.578 282.219 C 374.835 282.906,375.967 283.391,381.000 285.825 C 383.420 286.996,387.020 288.433,389.000 289.020 C 394.243 290.574,394.653 290.759,395.122 291.789 C 395.729 293.122,395.012 295.153,393.111 297.482 C 389.347 302.094,388.489 303.092,386.600 305.052 C 384.351 307.387,378.486 312.000,377.767 312.000 C 377.509 312.000,377.083 312.258,376.821 312.574 C 376.559 312.890,375.832 313.261,375.206 313.399 C 374.579 313.536,373.967 313.908,373.846 314.224 C 373.724 314.541,373.394 314.802,373.113 314.803 C 372.831 314.805,371.107 315.525,369.283 316.403 C 367.458 317.282,365.810 318.000,365.620 318.000 C 365.431 318.000,364.584 318.357,363.738 318.794 C 360.395 320.521,355.832 321.652,349.800 322.250 C 346.500 322.577,342.630 323.015,341.200 323.225 C 334.428 324.217,295.160 324.364,293.605 323.403 C 293.410 323.283,291.124 323.013,288.525 322.804 C 274.187 321.650,269.664 320.987,263.600 319.151 C 262.170 318.718,260.100 318.201,259.000 318.001 C 256.278 317.508,249.704 315.684,248.689 315.141 C 247.895 314.716,244.855 313.626,239.800 311.955 C 238.480 311.519,236.430 310.703,235.244 310.143 C 234.058 309.582,232.170 308.851,231.047 308.518 C 228.360 307.720,223.358 305.329,221.600 304.003 C 220.273 303.002,216.899 300.929,215.600 300.317 C 215.044 300.055,213.258 298.772,209.335 295.815 C 204.783 292.384,199.760 283.770,199.247 278.513 C 198.933 275.305,199.380 268.640,199.991 267.400 C 200.208 266.960,200.860 265.070,201.439 263.200 C 202.440 259.966,203.908 256.908,205.086 255.600 C 205.383 255.270,206.834 253.290,208.310 251.200 C 209.786 249.110,212.570 245.806,214.497 243.857 C 216.424 241.909,218.000 240.081,218.000 239.795 C 218.000 239.509,218.354 238.584,218.787 237.738 C 220.012 235.347,222.003 228.993,222.609 225.547 C 222.911 223.830,223.360 222.049,223.606 221.589 C 223.852 221.129,224.195 219.548,224.368 218.076 C 224.540 216.604,224.972 213.870,225.327 212.000 C 226.631 205.131,227.200 201.284,227.200 199.341 C 227.200 197.080,228.103 195.761,229.911 195.381 C 230.510 195.255,231.281 195.002,231.624 194.820 C 232.613 194.294,236.143 193.696,242.400 192.994 C 245.590 192.636,248.470 192.273,248.800 192.187 C 250.243 191.812,269.484 192.471,278.800 193.215 M239.000 204.381 C 238.560 204.546,237.813 204.814,237.340 204.977 C 236.858 205.142,236.394 205.719,236.286 206.285 L 236.092 207.297 236.946 206.243 C 238.661 204.124,240.032 204.140,244.556 206.331 C 245.743 206.907,244.061 205.443,242.789 204.794 C 241.165 203.966,240.342 203.876,239.000 204.381 M245.233 206.556 C 249.278 210.342,266.444 214.689,269.600 212.726 C 270.370 212.247,272.080 211.435,273.400 210.921 C 275.068 210.272,275.373 210.064,274.400 210.239 C 272.980 210.495,271.728 211.014,269.200 212.396 C 266.151 214.063,257.428 212.101,248.600 207.764 C 246.180 206.575,244.678 206.036,245.233 206.556 M236.240 208.989 C 236.600 211.477,240.923 214.339,246.307 215.654 C 247.348 215.909,248.650 216.341,249.200 216.615 C 250.297 217.161,254.285 218.519,259.686 220.186 C 267.580 222.623,277.075 221.087,279.230 217.025 C 280.617 214.411,279.625 211.275,277.200 210.612 C 276.338 210.376,276.376 210.450,277.478 211.150 C 280.759 213.234,279.924 217.338,275.800 219.400 C 272.991 220.805,266.441 221.290,262.413 220.391 C 260.028 219.860,250.109 216.677,248.931 216.066 C 248.529 215.858,247.120 215.375,245.800 214.995 C 240.464 213.455,237.205 211.299,236.439 208.800 L 236.009 207.400 236.240 208.989 M243.510 227.024 C 240.597 228.604,241.021 232.118,244.324 233.780 C 246.934 235.092,249.600 233.216,249.600 230.069 C 249.600 227.018,246.436 225.436,243.510 227.024 M315.914 227.624 C 312.114 231.424,316.919 240.512,327.004 248.600 C 328.101 249.480,329.215 250.403,329.480 250.652 C 332.021 253.040,346.849 257.878,349.310 257.123 C 354.488 255.534,353.230 250.584,347.200 248.823 C 345.550 248.341,342.940 247.353,341.400 246.627 C 339.860 245.902,338.199 245.183,337.708 245.030 C 337.217 244.876,335.777 244.125,334.508 243.359 C 333.239 242.594,331.801 241.867,331.312 241.744 C 330.824 241.620,329.423 240.346,328.198 238.911 L 325.971 236.302 326.231 234.007 C 326.883 228.243,319.724 223.814,315.914 227.624 M248.219 227.858 C 250.317 230.123,248.845 233.600,245.787 233.600 C 243.992 233.600,242.000 231.812,242.000 230.200 C 242.000 227.312,246.235 225.718,248.219 227.858 M322.428 227.900 C 325.309 229.359,326.117 230.879,325.775 234.200 L 325.529 236.600 327.356 238.600 C 328.360 239.700,329.186 240.745,329.191 240.922 C 329.196 241.100,330.049 241.621,331.087 242.080 C 332.125 242.539,333.790 243.416,334.787 244.030 C 337.189 245.507,342.589 247.822,346.800 249.180 C 351.814 250.796,353.433 253.523,350.729 255.798 C 349.137 257.138,347.514 257.047,341.800 255.299 C 332.030 252.310,328.787 250.348,321.423 242.973 C 312.663 234.199,313.389 223.321,322.428 227.900 M329.915 257.821 C 327.776 258.982,327.548 264.102,329.587 265.193 C 333.046 267.044,337.460 263.512,335.866 260.169 C 334.678 257.678,332.072 256.650,329.915 257.821 M334.500 259.126 C 336.859 261.321,335.143 265.200,331.814 265.200 C 329.667 265.200,328.759 264.161,328.739 261.686 C 328.709 257.778,331.647 256.473,334.500 259.126 M250.360 282.045 C 248.284 282.807,247.869 288.800,249.893 288.800 C 250.358 288.800,250.349 288.692,249.844 288.187 C 248.514 286.857,248.697 283.683,250.160 282.706 C 251.341 281.917,254.923 282.442,259.105 284.017 C 261.467 284.907,265.830 286.543,268.800 287.654 C 271.770 288.764,274.920 289.990,275.800 290.378 C 278.053 291.370,287.828 294.849,292.670 296.382 C 294.909 297.091,297.021 297.982,297.365 298.361 C 298.421 299.528,298.919 301.430,298.415 302.372 C 298.128 302.908,298.115 303.200,298.378 303.200 C 298.930 303.200,299.340 301.414,299.052 300.265 C 298.522 298.153,297.393 297.387,292.527 295.843 C 289.927 295.018,287.170 294.097,286.400 293.797 C 285.630 293.497,283.200 292.601,281.000 291.807 C 278.800 291.013,276.460 290.123,275.800 289.830 C 275.140 289.537,272.260 288.444,269.400 287.401 C 266.540 286.358,263.444 285.166,262.520 284.751 C 256.940 282.250,252.496 281.261,250.360 282.045 M251.600 289.716 C 252.370 289.982,253.196 290.328,253.435 290.483 C 254.113 290.925,257.217 291.551,257.001 291.202 C 256.895 291.031,256.132 290.764,255.304 290.610 C 254.477 290.455,253.620 290.185,253.400 290.010 C 253.180 289.835,252.370 289.589,251.600 289.462 L 250.200 289.231 251.600 289.716 M257.806 292.010 C 257.906 292.172,258.435 292.390,258.982 292.494 C 259.529 292.599,259.894 292.552,259.794 292.390 C 259.694 292.228,259.165 292.010,258.618 291.906 C 258.071 291.801,257.706 291.848,257.806 292.010 M261.776 293.398 C 262.204 293.729,262.774 294.000,263.043 294.000 C 263.313 294.000,263.593 294.135,263.667 294.300 C 263.740 294.465,265.510 295.026,267.600 295.546 C 269.690 296.067,271.629 296.677,271.909 296.903 C 272.284 297.205,272.360 297.160,272.195 296.732 C 272.061 296.381,270.431 295.783,268.086 295.224 C 265.949 294.715,264.014 294.152,263.787 293.972 C 263.560 293.793,262.840 293.455,262.187 293.221 C 261.088 292.827,261.057 292.840,261.776 293.398 M273.423 297.237 C 273.546 297.437,273.975 297.600,274.375 297.600 C 274.775 297.600,275.310 297.851,275.565 298.158 C 275.820 298.465,276.674 298.837,277.463 298.986 C 278.253 299.134,279.191 299.396,279.549 299.569 C 281.523 300.520,283.113 301.174,284.000 301.398 C 284.550 301.537,285.360 301.797,285.800 301.975 C 288.694 303.151,289.034 303.240,288.224 302.607 C 287.796 302.273,287.132 302.000,286.747 302.000 C 286.362 302.000,285.946 301.836,285.822 301.635 C 285.697 301.434,284.877 301.148,283.998 301.000 C 283.119 300.851,282.400 300.580,282.400 300.397 C 282.400 300.213,281.815 299.938,281.100 299.786 C 280.385 299.633,279.620 299.369,279.400 299.200 C 279.180 299.031,278.370 298.762,277.600 298.602 C 276.830 298.442,275.930 298.086,275.600 297.812 C 274.862 297.198,273.114 296.737,273.423 297.237 M123.999 299.520 C 122.638 300.622,123.365 301.887,126.116 303.203 C 129.818 304.974,130.107 305.795,129.776 313.608 L 129.497 320.216 130.587 321.512 C 132.040 323.238,132.471 326.000,131.288 326.000 C 130.839 326.000,130.002 325.415,129.430 324.700 C 128.857 323.985,128.214 323.186,128.001 322.924 C 127.076 321.787,126.104 319.682,125.830 318.220 C 125.356 315.693,124.005 315.060,121.622 316.249 C 120.724 316.697,119.788 316.825,118.598 316.662 C 116.880 316.426,114.800 317.404,114.800 318.448 C 114.800 318.663,114.206 319.775,113.480 320.919 C 112.755 322.064,111.919 323.630,111.624 324.400 C 111.329 325.170,110.483 327.091,109.744 328.669 C 109.005 330.247,108.400 331.788,108.400 332.093 C 108.400 332.723,106.955 334.400,106.413 334.400 C 105.976 334.400,104.800 333.258,104.800 332.834 C 104.800 332.100,100.749 328.396,97.996 326.611 C 96.348 325.543,94.491 324.249,93.869 323.735 C 91.831 322.050,89.514 323.038,90.228 325.288 C 90.582 326.405,95.575 331.393,98.444 333.497 C 103.553 337.243,109.456 337.868,109.587 334.676 C 109.635 333.501,113.770 329.707,116.746 328.108 C 118.595 327.114,129.863 327.420,131.192 328.500 C 131.801 328.995,132.865 329.709,133.557 330.086 C 135.684 331.245,136.058 334.098,134.145 334.578 C 132.801 334.915,129.202 333.781,128.518 332.804 C 126.622 330.097,114.800 333.033,114.800 336.211 C 114.800 337.175,110.959 340.298,109.200 340.764 C 107.180 341.300,103.443 340.643,99.943 339.137 C 96.529 337.669,93.580 339.748,96.485 341.576 C 103.178 345.788,111.729 348.561,115.287 347.675 C 116.229 347.440,119.070 347.134,121.600 346.995 C 127.103 346.693,129.549 346.280,133.800 344.933 C 135.560 344.376,138.350 343.752,140.000 343.546 C 141.650 343.341,143.630 343.077,144.400 342.960 C 145.640 342.772,146.074 342.979,148.200 344.773 C 149.520 345.887,151.590 347.456,152.800 348.260 C 154.010 349.064,155.734 350.370,156.631 351.161 C 159.867 354.015,164.244 357.470,166.430 358.896 C 167.657 359.696,168.917 360.659,169.230 361.037 C 169.544 361.415,170.340 361.977,171.000 362.286 C 172.641 363.054,173.861 363.764,174.697 364.436 C 175.084 364.746,175.830 365.242,176.355 365.538 C 178.568 366.784,180.089 367.652,181.500 368.474 C 187.017 371.689,188.034 372.012,189.474 371.003 C 190.373 370.373,190.347 369.177,189.409 368.000 C 188.387 366.718,182.727 354.256,182.233 352.200 C 181.977 351.135,180.427 347.662,177.900 342.491 C 177.103 340.861,176.441 340.301,173.155 338.477 C 170.692 337.110,169.890 336.619,169.234 336.072 C 168.885 335.782,167.250 334.658,165.600 333.573 C 159.680 329.683,151.753 321.190,147.651 314.339 C 145.371 310.533,142.539 307.778,137.800 304.756 C 133.767 302.184,131.323 300.800,130.813 300.800 C 130.568 300.800,129.880 300.445,129.284 300.012 C 127.593 298.782,125.187 298.558,123.999 299.520 M129.534 301.338 C 139.087 306.135,143.778 309.658,146.179 313.840 C 148.392 317.694,149.972 319.844,152.763 322.800 C 154.321 324.450,155.597 325.922,155.598 326.071 C 155.599 326.221,155.849 326.581,156.152 326.871 C 160.788 331.309,162.519 332.719,166.600 335.384 C 169.240 337.108,172.040 338.942,172.822 339.459 C 173.603 339.977,174.427 340.400,174.652 340.400 C 175.362 340.400,176.716 342.130,177.573 344.133 C 178.028 345.196,179.106 347.491,179.968 349.232 C 180.830 350.973,181.657 352.947,181.804 353.619 C 182.210 355.468,183.782 359.165,186.421 364.474 C 190.020 371.717,189.475 372.013,181.400 367.196 C 180.300 366.540,178.950 365.783,178.400 365.515 C 177.850 365.247,176.860 364.638,176.200 364.163 C 175.540 363.687,173.854 362.691,172.454 361.949 C 171.054 361.207,169.412 360.034,168.804 359.343 C 168.197 358.651,167.345 357.973,166.911 357.835 C 166.029 357.555,165.042 356.813,159.412 352.200 C 157.264 350.440,155.213 348.820,154.855 348.600 C 153.692 347.887,149.400 344.402,147.712 342.800 C 146.483 341.634,144.720 341.277,143.240 341.894 C 142.492 342.206,140.321 342.622,138.416 342.819 C 136.511 343.016,134.153 343.530,133.176 343.959 C 132.198 344.390,129.514 344.949,127.200 345.204 C 124.890 345.459,121.077 345.922,118.727 346.234 C 112.024 347.122,106.078 345.988,100.400 342.738 C 100.070 342.550,99.223 342.097,98.518 341.732 C 97.275 341.089,96.555 340.112,96.998 339.669 C 97.320 339.347,101.256 340.426,102.343 341.134 C 105.126 342.947,113.200 341.483,113.200 339.165 C 113.200 338.964,113.535 338.800,113.944 338.800 C 114.353 338.800,115.337 338.188,116.131 337.439 C 117.245 336.388,118.054 336.015,119.687 335.798 C 120.849 335.644,122.340 335.283,123.000 334.996 C 124.487 334.349,128.585 333.948,129.054 334.404 C 129.778 335.107,135.618 335.635,136.742 335.098 C 139.528 333.767,137.090 330.163,132.649 329.048 C 132.072 328.903,131.600 328.608,131.600 328.392 C 131.600 328.177,131.603 327.865,131.608 327.700 C 131.612 327.535,132.014 327.400,132.500 327.400 C 133.839 327.400,133.961 324.043,132.671 322.713 C 130.250 320.217,129.893 318.059,131.017 312.726 C 131.975 308.181,130.099 303.180,127.200 302.552 C 125.893 302.269,124.269 300.936,124.593 300.411 C 125.061 299.654,126.846 299.989,129.534 301.338 M289.362 303.538 C 289.487 303.741,290.138 303.988,290.808 304.086 C 292.271 304.301,291.865 303.813,290.266 303.436 C 289.605 303.279,289.228 303.322,289.362 303.538 M296.863 304.241 C 296.301 304.634,295.419 304.820,294.574 304.721 C 293.818 304.633,293.200 304.704,293.200 304.880 C 293.200 305.716,296.283 305.340,297.315 304.379 C 298.328 303.435,298.110 303.368,296.863 304.241 M397.962 305.500 C 396.967 306.545,395.486 308.244,394.671 309.275 C 391.693 313.040,383.870 320.000,382.616 320.000 C 382.497 320.000,382.049 320.351,381.621 320.779 C 381.193 321.207,380.068 321.766,379.121 322.021 C 372.158 323.895,370.527 326.533,373.028 331.875 C 373.563 333.017,374.000 334.108,374.000 334.300 C 374.000 334.492,374.360 335.395,374.800 336.306 C 375.240 337.216,375.600 338.229,375.600 338.555 C 375.600 338.882,375.975 340.646,376.434 342.475 C 377.193 345.501,378.053 362.115,378.053 373.725 C 378.052 376.881,377.011 378.347,373.565 380.046 C 370.284 381.663,369.788 382.118,368.234 384.947 C 367.645 386.017,366.947 387.125,366.682 387.408 C 366.417 387.691,365.480 388.961,364.600 390.230 C 362.162 393.747,360.751 395.199,357.439 397.600 C 354.990 399.375,354.568 399.826,355.256 399.935 C 355.726 400.009,356.220 399.906,356.355 399.705 C 356.490 399.504,357.185 398.999,357.900 398.584 C 358.615 398.168,359.200 397.686,359.200 397.514 C 359.200 397.341,359.425 397.197,359.700 397.194 C 360.199 397.188,363.575 393.626,364.770 391.846 C 365.117 391.330,365.940 390.140,366.600 389.201 C 367.260 388.262,368.349 386.483,369.021 385.247 C 370.224 383.033,373.097 380.835,374.822 380.809 C 375.944 380.792,378.306 378.238,378.733 376.580 C 379.396 374.003,378.662 347.298,377.831 343.800 C 376.625 338.716,375.564 335.022,374.844 333.400 C 374.454 332.520,373.834 331.119,373.467 330.286 C 371.929 326.798,373.537 324.930,380.104 322.572 C 380.932 322.275,382.404 321.485,383.376 320.816 C 384.349 320.147,385.320 319.600,385.535 319.600 C 386.607 319.600,400.000 305.291,400.000 304.146 C 400.000 303.371,399.966 303.394,397.962 305.500 M206.605 313.654 C 204.847 315.435,201.877 318.029,200.005 319.419 C 198.132 320.809,196.089 322.344,195.465 322.832 C 194.841 323.320,192.911 324.572,191.177 325.614 C 184.496 329.629,182.594 332.216,184.174 335.138 C 184.490 335.722,185.690 338.180,186.840 340.600 C 187.991 343.020,189.728 346.319,190.701 347.930 C 192.853 351.494,194.158 354.393,195.448 358.476 C 195.985 360.176,196.587 361.668,196.786 361.791 C 197.224 362.062,203.600 374.852,203.600 375.461 C 203.600 378.371,206.492 378.228,207.852 375.250 C 209.376 371.914,216.182 358.299,217.275 356.400 C 217.465 356.070,217.966 355.074,218.390 354.188 C 220.255 350.283,223.200 347.668,223.200 349.917 C 223.200 351.376,221.264 360.647,220.677 362.000 C 220.342 362.770,219.367 365.470,218.509 368.000 C 217.651 370.530,216.628 373.500,216.235 374.600 C 215.842 375.700,215.368 377.826,215.182 379.325 C 214.996 380.824,214.200 383.859,213.414 386.070 C 212.092 389.788,211.228 394.731,211.207 398.700 C 211.201 399.904,211.297 400.000,212.511 400.000 L 213.822 400.000 214.778 395.900 C 215.304 393.645,216.165 390.540,216.690 389.000 C 217.983 385.215,218.202 384.456,219.397 379.600 C 219.966 377.290,220.710 374.683,221.050 373.806 C 221.391 372.929,222.003 370.195,222.412 367.730 C 222.820 365.266,223.409 362.743,223.721 362.125 C 224.032 361.506,224.392 360.319,224.520 359.488 C 224.649 358.656,225.034 357.413,225.377 356.726 C 225.720 356.039,226.000 355.256,226.000 354.985 C 226.000 354.714,226.706 353.077,227.569 351.346 C 228.433 349.616,230.079 345.410,231.228 342.000 C 232.377 338.590,233.495 335.572,233.713 335.293 C 233.932 335.014,234.249 334.114,234.418 333.293 C 234.587 332.472,235.163 330.270,235.697 328.400 C 237.155 323.294,237.120 323.243,230.678 321.182 C 227.775 320.254,224.500 318.914,223.400 318.206 C 222.300 317.497,219.780 316.048,217.800 314.985 C 215.820 313.922,213.369 312.455,212.352 311.726 C 209.970 310.016,210.306 309.903,206.605 313.654 M102.545 313.400 C 102.158 314.408,102.683 315.124,104.481 316.039 C 105.426 316.521,106.404 317.204,106.654 317.558 C 106.903 317.911,107.457 318.631,107.884 319.157 L 108.660 320.114 109.990 318.925 C 112.033 317.100,111.554 316.152,107.655 314.300 C 104.259 312.687,102.909 312.450,102.545 313.400 M106.800 315.256 C 106.800 315.410,107.328 315.652,107.972 315.794 C 109.370 316.101,110.178 316.959,109.857 317.795 C 109.503 318.718,108.938 318.530,107.578 317.035 C 106.895 316.285,105.900 315.561,105.368 315.428 C 104.836 315.294,104.400 314.934,104.400 314.627 C 104.400 314.174,104.624 314.154,105.600 314.522 C 106.260 314.772,106.800 315.102,106.800 315.256 M94.030 315.170 C 92.608 316.592,94.798 319.946,98.605 322.180 C 99.488 322.698,101.148 324.130,102.294 325.361 C 103.440 326.593,104.562 327.600,104.789 327.600 C 105.417 327.600,106.800 326.078,106.800 325.386 C 106.800 325.048,107.083 324.340,107.429 323.812 C 108.759 321.782,108.092 320.631,105.420 320.344 C 103.750 320.165,102.848 319.853,102.400 319.299 C 102.048 318.865,101.092 318.268,100.275 317.973 C 99.459 317.677,98.079 316.753,97.211 315.918 C 95.403 314.181,95.092 314.108,94.030 315.170 M97.026 317.000 C 97.752 317.770,98.679 318.400,99.085 318.400 C 99.491 318.400,100.486 319.044,101.297 319.831 C 102.399 320.901,103.253 321.333,104.685 321.545 C 106.518 321.815,106.595 321.878,106.471 323.014 C 106.094 326.494,104.943 326.977,102.727 324.585 C 101.777 323.560,100.304 322.274,99.454 321.727 C 97.115 320.222,94.400 317.583,94.400 316.816 C 94.400 315.163,95.357 315.230,97.026 317.000 M124.494 317.500 C 124.835 317.885,125.242 318.986,125.399 319.946 C 125.589 321.100,126.146 322.203,127.043 323.195 C 127.789 324.021,128.400 324.887,128.400 325.119 C 128.400 325.352,128.874 325.915,129.454 326.371 L 130.508 327.200 124.103 327.200 C 117.947 327.200,114.800 327.710,114.800 328.708 C 114.800 328.871,114.215 329.263,113.500 329.578 C 112.109 330.191,111.648 330.595,110.971 331.793 C 110.736 332.211,110.323 332.626,110.054 332.715 C 109.470 332.910,109.814 331.053,110.595 329.794 C 110.870 329.351,111.220 328.418,111.373 327.722 C 111.526 327.025,111.910 326.241,112.226 325.979 C 112.542 325.717,112.800 325.116,112.800 324.644 C 112.800 324.172,113.250 323.123,113.800 322.314 C 114.350 321.505,114.800 320.677,114.800 320.475 C 114.800 319.002,116.497 317.998,118.816 318.098 C 120.622 318.176,121.334 318.037,121.871 317.500 C 122.256 317.115,122.865 316.800,123.224 316.800 C 123.582 316.800,124.154 317.115,124.494 317.500 M92.800 324.400 C 92.800 324.620,92.980 324.800,93.199 324.800 C 93.419 324.800,94.475 325.430,95.547 326.200 C 96.619 326.970,97.699 327.600,97.948 327.600 C 98.196 327.600,98.400 327.750,98.400 327.933 C 98.400 328.116,99.304 328.851,100.410 329.567 C 103.058 331.284,104.827 334.508,103.417 335.049 C 102.719 335.317,97.559 331.942,96.205 330.333 C 95.680 329.710,95.121 329.200,94.962 329.200 C 94.803 329.200,93.891 328.349,92.936 327.309 C 91.054 325.258,90.698 324.000,92.000 324.000 C 92.440 324.000,92.800 324.180,92.800 324.400 M86.400 327.574 C 86.400 328.003,86.724 328.590,87.120 328.877 C 87.516 329.165,88.088 330.009,88.391 330.753 C 88.693 331.497,89.384 332.633,89.926 333.277 C 90.828 334.349,90.890 334.672,90.661 337.128 C 90.305 340.963,92.491 345.887,94.940 346.765 C 95.193 346.856,95.580 347.154,95.800 347.427 C 96.635 348.466,108.491 351.599,114.798 352.448 C 119.081 353.024,128.314 352.708,131.000 351.893 C 144.631 347.758,143.852 347.713,149.180 352.932 C 155.985 359.597,158.538 362.000,158.813 362.000 C 158.962 362.000,159.534 362.405,160.085 362.900 C 160.635 363.395,161.492 364.070,161.988 364.400 C 163.775 365.588,165.816 367.153,166.642 367.969 C 167.105 368.426,167.577 368.800,167.689 368.800 C 167.802 368.800,168.773 369.631,169.847 370.646 C 172.578 373.227,172.884 373.463,173.900 373.776 C 174.395 373.929,174.800 374.210,174.800 374.400 C 174.800 374.590,175.205 374.870,175.700 375.021 C 176.195 375.172,178.285 376.104,180.344 377.092 C 184.073 378.882,185.635 379.250,192.096 379.860 C 194.616 380.099,199.214 383.519,199.197 385.142 C 199.191 385.780,202.263 387.970,203.752 388.390 C 206.955 389.293,207.009 389.406,206.928 395.021 C 206.870 399.104,206.960 400.000,207.428 400.000 C 207.892 400.000,207.999 399.110,207.994 395.300 C 207.987 389.557,207.708 388.892,204.829 387.743 C 202.723 386.902,199.660 384.591,199.605 383.800 C 199.589 383.580,199.072 382.860,198.455 382.200 C 195.801 379.362,195.350 379.110,192.320 378.768 C 185.959 378.050,183.533 377.588,182.098 376.822 C 181.274 376.382,179.425 375.487,177.988 374.833 C 175.387 373.648,170.240 370.053,169.312 368.773 C 168.829 368.106,162.373 363.154,160.350 361.898 C 159.772 361.540,156.475 358.491,153.023 355.123 C 144.276 346.590,144.963 346.743,132.000 350.457 C 126.507 352.031,114.425 351.900,108.800 350.206 C 107.810 349.908,106.100 349.550,105.000 349.411 C 96.371 348.319,91.265 343.508,91.869 337.038 C 92.102 334.548,92.083 334.485,90.275 331.845 C 89.269 330.376,88.347 328.864,88.227 328.486 C 87.864 327.340,86.400 326.610,86.400 327.574 M362.299 330.158 C 361.913 330.451,360.570 330.811,359.315 330.958 C 358.060 331.106,356.725 331.506,356.348 331.847 C 355.893 332.259,353.931 332.663,350.531 333.045 C 347.709 333.362,343.960 333.924,342.200 334.294 C 340.440 334.665,337.091 334.993,334.758 335.024 C 329.732 335.091,329.525 335.179,329.827 337.124 C 329.956 337.954,329.781 339.643,329.428 340.984 C 329.083 342.295,328.800 344.332,328.800 345.510 C 328.800 346.689,328.603 348.020,328.363 348.470 C 327.598 349.899,327.890 361.216,328.716 362.128 C 329.397 362.881,334.110 365.200,334.959 365.200 C 335.205 365.200,336.252 365.650,337.285 366.200 C 338.318 366.750,339.385 367.200,339.655 367.200 C 339.926 367.200,340.879 367.533,341.774 367.940 C 344.891 369.359,346.621 369.979,349.800 370.819 C 351.560 371.283,353.900 371.990,355.000 372.390 C 356.100 372.790,358.170 373.331,359.600 373.593 C 361.030 373.854,363.292 374.323,364.626 374.634 C 368.098 375.444,371.079 375.386,371.520 374.500 C 371.904 373.729,371.165 347.254,370.741 346.600 C 370.598 346.380,370.027 344.039,369.472 341.397 C 367.473 331.892,365.038 328.078,362.299 330.158 M258.260 331.655 C 256.761 335.189,255.991 337.224,255.178 339.800 C 254.082 343.275,251.992 349.112,250.381 353.200 C 249.991 354.190,249.547 355.900,249.394 357.000 C 249.241 358.100,248.591 360.620,247.949 362.600 C 247.307 364.580,246.441 367.370,246.024 368.800 C 245.607 370.230,244.798 372.930,244.226 374.800 C 243.654 376.670,243.191 378.470,243.196 378.800 C 243.206 379.418,242.081 384.864,240.924 389.800 C 240.564 391.340,240.150 393.950,240.005 395.600 C 239.861 397.250,239.601 398.915,239.428 399.300 C 239.132 399.962,240.253 400.000,259.928 400.000 L 280.742 400.000 281.021 397.769 C 281.443 394.391,281.006 393.777,277.950 393.458 C 271.740 392.809,260.800 385.683,260.800 382.287 C 260.800 381.947,259.675 380.196,258.300 378.396 C 253.876 372.603,253.632 372.233,252.809 370.085 C 251.348 366.265,251.828 363.319,254.298 360.953 C 255.477 359.823,255.600 359.484,255.603 357.353 C 255.608 352.314,260.112 349.310,265.152 350.984 C 267.338 351.710,268.457 351.439,269.534 349.920 C 270.149 349.054,272.572 347.452,273.911 347.028 C 275.415 346.551,283.218 349.344,286.325 351.471 C 289.829 353.870,290.123 353.677,290.450 348.758 C 290.588 346.691,290.993 344.303,291.350 343.451 C 291.708 342.599,291.997 341.609,291.994 341.251 C 291.991 340.893,292.378 339.404,292.853 337.942 C 294.194 333.822,294.550 334.000,284.993 334.000 C 278.429 334.000,276.523 333.877,275.591 333.395 C 274.948 333.063,273.112 332.538,271.511 332.229 C 269.910 331.920,268.083 331.468,267.452 331.225 C 266.821 330.982,264.622 330.677,262.567 330.546 L 258.830 330.309 258.260 331.655 M124.400 332.800 C 124.070 333.013,123.170 333.188,122.400 333.188 C 121.350 333.188,121.150 333.091,121.600 332.800 C 121.930 332.587,122.830 332.412,123.600 332.412 C 124.650 332.412,124.850 332.509,124.400 332.800 M108.616 335.173 C 108.471 335.408,108.048 335.594,107.676 335.587 C 107.083 335.576,107.094 335.503,107.771 334.991 C 108.593 334.370,109.052 334.468,108.616 335.173 M322.892 335.535 C 322.312 335.903,321.044 339.171,320.635 341.355 C 320.483 342.162,320.008 343.923,319.578 345.268 C 318.990 347.111,318.908 347.848,319.247 348.257 C 320.307 349.534,320.880 348.614,321.930 343.948 C 322.361 342.035,323.223 339.692,323.942 338.482 C 325.668 335.577,325.144 334.105,322.892 335.535 M302.434 338.926 C 301.331 340.029,302.248 343.195,304.598 346.397 C 306.426 348.887,306.395 350.097,304.400 354.200 C 301.005 361.181,295.473 363.221,289.161 359.820 C 287.753 359.060,285.880 358.071,285.000 357.620 C 284.120 357.170,282.500 356.265,281.400 355.611 C 276.992 352.986,275.947 352.801,275.171 354.505 C 274.160 356.723,277.623 362.146,283.744 367.932 C 286.209 370.262,286.545 371.369,285.001 372.072 C 283.180 372.902,281.237 371.922,277.554 368.318 C 275.709 366.513,273.030 364.152,271.600 363.070 C 270.170 361.989,268.690 360.779,268.312 360.381 C 265.029 356.935,261.045 356.614,262.291 359.897 C 263.037 361.860,274.265 373.491,277.849 376.012 C 278.941 376.780,279.405 378.271,278.784 379.019 C 278.235 379.681,276.173 379.804,275.798 379.197 C 275.661 378.975,274.886 378.456,274.075 378.044 C 267.814 374.857,265.337 372.986,262.284 369.137 C 259.425 365.531,258.380 367.996,261.047 372.057 C 261.681 373.023,262.380 374.104,262.600 374.459 C 263.056 375.194,266.467 379.363,268.700 381.913 C 272.401 386.140,276.083 387.712,282.400 387.761 C 290.134 387.821,299.158 386.657,303.491 385.041 L 305.182 384.410 309.291 386.351 C 311.551 387.418,314.750 388.867,316.400 389.571 C 318.050 390.275,319.719 391.024,320.109 391.235 C 320.499 391.446,323.289 392.462,326.309 393.492 L 331.800 395.367 340.600 395.383 C 352.223 395.405,352.792 395.198,358.996 388.673 C 364.321 383.074,364.571 381.965,360.600 381.548 C 358.165 381.292,357.787 381.207,351.400 379.480 C 344.631 377.650,343.046 377.170,342.623 376.819 C 342.390 376.626,340.580 376.013,338.600 375.456 C 335.583 374.607,330.520 372.357,329.000 371.190 C 328.780 371.021,327.410 370.878,325.955 370.871 C 321.568 370.853,316.612 368.533,315.706 366.072 C 315.570 365.703,315.270 365.275,315.040 365.122 C 314.586 364.819,314.581 363.376,315.016 357.684 C 315.494 351.422,314.654 349.648,307.862 342.564 C 304.299 338.846,303.230 338.130,302.434 338.926 M307.700 343.640 C 309.625 345.642,311.200 347.524,311.200 347.820 C 311.200 348.117,311.446 348.504,311.746 348.680 C 313.556 349.741,314.205 354.487,313.594 362.200 C 313.201 367.162,320.816 373.143,326.338 372.211 C 327.791 371.965,331.743 373.435,332.432 374.477 C 332.560 374.670,333.370 374.937,334.232 375.071 C 335.095 375.204,336.286 375.557,336.880 375.856 C 337.474 376.155,338.266 376.400,338.640 376.400 C 339.014 376.400,340.262 376.861,341.413 377.424 C 343.455 378.423,344.903 378.902,349.800 380.198 C 351.120 380.547,353.370 381.211,354.800 381.673 C 356.230 382.136,358.390 382.564,359.600 382.626 C 362.876 382.793,362.714 383.478,358.308 388.100 C 356.264 390.245,354.441 392.000,354.257 392.000 C 354.074 392.000,353.446 392.333,352.862 392.739 C 351.179 393.911,344.061 394.946,339.579 394.670 C 335.318 394.408,328.733 393.453,327.979 392.987 C 327.389 392.623,321.395 390.448,320.100 390.129 C 319.605 390.007,319.200 389.748,319.200 389.553 C 319.200 389.359,318.795 389.194,318.300 389.186 C 317.805 389.179,316.680 388.825,315.800 388.400 C 314.920 387.975,314.020 387.617,313.800 387.605 C 313.580 387.592,312.950 387.230,312.400 386.800 C 311.850 386.370,311.171 386.014,310.891 386.009 C 310.612 386.004,309.640 385.508,308.732 384.908 C 306.644 383.526,303.643 383.497,300.400 384.828 C 295.573 386.808,279.025 387.191,275.377 385.406 C 271.861 383.686,268.795 381.347,268.341 380.040 C 268.263 379.816,267.097 378.403,265.749 376.899 C 263.595 374.497,260.477 369.506,261.541 370.164 C 261.759 370.298,262.896 371.409,264.068 372.632 C 265.241 373.855,266.560 375.031,267.000 375.245 C 268.088 375.774,269.189 376.441,270.608 377.431 C 272.456 378.718,277.049 380.800,278.043 380.800 C 280.964 380.800,281.092 376.991,278.231 375.216 C 277.554 374.796,276.190 373.459,275.200 372.246 C 274.210 371.032,273.235 370.030,273.034 370.019 C 272.832 370.009,272.382 369.727,272.034 369.394 C 271.685 369.061,270.680 368.100,269.800 367.259 C 266.995 364.579,263.000 360.022,263.000 359.502 C 263.000 357.321,269.346 361.726,277.261 369.400 C 281.358 373.373,282.136 373.741,285.159 373.132 C 287.827 372.594,287.992 370.320,285.523 368.105 C 276.157 359.700,272.083 351.386,279.400 355.607 C 281.868 357.031,282.498 357.387,287.000 359.904 C 296.300 365.103,303.589 361.791,306.823 350.895 C 307.404 348.939,307.269 348.561,304.572 344.600 C 302.762 341.940,302.286 340.908,302.622 340.364 C 303.189 339.447,304.455 340.264,307.700 343.640 M289.200 350.846 C 289.200 351.341,288.721 351.267,287.900 350.643 C 286.777 349.791,287.042 349.078,288.200 349.837 C 288.750 350.197,289.200 350.651,289.200 350.846 M224.834 353.242 C 224.482 354.123,224.449 354.133,224.425 353.367 C 224.411 352.908,224.520 352.413,224.667 352.267 C 225.144 351.789,225.226 352.263,224.834 353.242 M319.218 361.378 C 318.138 362.679,319.926 364.245,321.124 363.047 C 321.634 362.538,321.686 362.225,321.350 361.692 C 320.766 360.765,319.840 360.628,319.218 361.378 M221.434 366.772 C 221.092 367.557,220.618 369.010,220.381 370.000 C 220.144 370.990,219.767 372.565,219.543 373.500 C 219.319 374.435,218.999 375.200,218.832 375.200 C 218.665 375.200,218.303 376.505,218.028 378.100 C 217.753 379.695,217.364 381.413,217.164 381.919 C 216.964 382.424,216.800 383.386,216.800 384.057 C 216.800 384.728,216.465 385.754,216.055 386.338 C 215.646 386.922,215.163 388.120,214.982 389.000 C 214.710 390.320,214.624 390.429,214.488 389.621 C 214.328 388.668,215.042 385.810,215.645 384.991 C 215.910 384.632,216.468 381.732,217.049 377.700 C 217.152 376.985,217.388 376.400,217.574 376.400 C 217.760 376.400,218.014 375.815,218.137 375.100 C 218.674 371.998,218.920 370.975,219.225 370.589 C 219.665 370.033,221.583 364.109,221.667 363.049 C 221.704 362.582,221.807 362.907,221.896 363.772 C 221.987 364.667,221.789 365.958,221.434 366.772 M206.141 375.696 C 205.725 376.368,205.200 375.937,205.200 374.924 C 205.200 373.899,205.227 373.884,205.765 374.619 C 206.075 375.044,206.244 375.528,206.141 375.696 M213.608 394.016 C 213.252 394.833,213.215 394.668,213.390 393.044 C 213.505 391.968,213.633 390.618,213.674 390.044 C 213.715 389.470,213.813 389.907,213.892 391.016 C 213.971 392.126,213.843 393.476,213.608 394.016 M305.693 393.161 C 304.846 393.888,303.664 399.397,304.233 399.966 C 304.693 400.426,305.275 399.100,305.590 396.872 C 306.179 392.703,306.823 392.629,313.000 396.022 C 318.847 399.233,320.635 400.000,322.274 400.000 C 324.147 400.000,323.618 399.383,321.093 398.622 C 319.942 398.276,317.560 397.192,315.800 396.215 C 308.963 392.417,307.185 391.880,305.693 393.161 M279.000 396.000 C 279.000 396.293,278.775 396.608,278.500 396.700 C 278.203 396.799,278.000 396.516,278.000 396.000 C 278.000 395.484,278.203 395.201,278.500 395.300 C 278.775 395.392,279.000 395.707,279.000 396.000 " stroke="none" fill="#898c8a" fill-rule="evenodd"></path></g></svg>