<?xml version="1.0" standalone="no"?>
<!DOCTYPE svg PUBLIC "-//W3C//DTD SVG 1.1//EN" "http://www.w3.org/Graphics/SVG/1.1/DTD/svg11.dtd">
<svg viewBox="0 0 500 500" style="background-color:#ffffff00" version="1.1"
  xmlns="http://www.w3.org/2000/svg" xmlns:xlink="http://www.w3.org/1999/xlink" xml:space="preserve"
>

<g id="1" style="display:none">
 <path id="svg_1" d="M371.14 34.434zM83.81-.375c-7.397 18.134-11.858 29.997-20.093 47.593 5.049 5.352 11.246 11.584 21.311 18.624-10.82-4.453-18.2-8.924-23.717-13.562C50.772 74.272 34.259 105.6.75 165.81c26.338-15.2 46.753-24.58 65.78-28.15a48.312 48.312 0 0 1-1.25-11.28l.031-.85c.418-16.87 9.195-29.845 19.593-28.964s18.478 15.284 18.058 32.154c-.07 3.18-.43 6.23-1.06 9.06 18.82 3.68 39.02 13.03 65 28.03-5.12-9.43-9.7-17.93-14.06-26.03-6.88-5.33-14.05-12.27-28.69-19.78 10.06 2.62 17.26 5.63 22.88 9-44.4-82.668-47.993-93.651-63.223-129.37l.001-.005z" fill="#1793D1"/>
		</g>
		
	<g id="2" style="display:none">
        <path d="M141.457-.01h58.535v200h-58.535zM70.72 70.72h58.535v129.27H70.72zM-.005-.01H58.53v200H-.005z M129.26-.01v58.534H20.763V-.01z" fill="#35bf5c"/>
	</g>
	<g id="0" style="display:none">
		    <path d="M294.16 55.457c-16.1 0-18.8.2-29.5 3-13.2 3.5-20.9 7.9-29.9 17-4.6 4.5-6.9 7.4-9.1 11.1-5.5 9.5-9.1 20.3-11.3 34.9-1.2 7.1-1.3 9.7-1.2 27.3 0 18.5 2.2 74.9 3.5 91.8.9 11.2.5 12.4-8.9 25.5-3.3 4.6-7.9 11.3-10.2 14.9-6.3 9.7-15.2 22.2-22.5 31.8-13.5 17.4-16.9 23.8-25.4 46.9-8.2 22.6-13.2 33.8-25.3 57.3-6.2 11.8-7.8 16.8-8.1 25.2-.4 7.2.6 17.2 1.7 19 .9 1.2 2 1.5 4.2.9-.3.3-.5.5-.7.6-3.5 2.3-7.5 7.2-10 13.4-.1.1-.1.3-.2.4-.9 1.4-1.9 3.8-3.1 7.5-3.6 10.2-6.6 14.7-12 17.6-4.6 2.5-8.7 3.1-20.7 3.1-12.4 0-15.1.6-18.8 3.8-6.6 5.6-7.6 16.7-3.1 32.1 4.1 13.9 3.9 20.3-1.4 35.9-2.9 8.6-3.3 10.4-3.3 14.1 0 2.8.3 4.9.9 6.2 1.3 2.7 5.4 6 9.4 7.7 4.5 1.7 27.1 7.3 43.3 10.5 25.1 5.1 34.1 7.8 57.4 17.1 20.7 8.2 29.5 11.2 36.5 12.3 3.3.5 10.1-.1 13.2-1.3 3.7-1.3 7.2-3.7 14.9-10.2 13.6-11.4 21-15 36.2-17.4 5.7-.9 10.9-1 54.4-1 26.4 0 49.7.2 51.8.5 4.9.6 6.8 2.2 10.9 9.4 6.3 11.3 14 16.3 28 18.4 6.6 1 17.9 1.1 23.1.3 11.4-1.9 17.1-5.3 30-18.2 15-15.1 29-24.6 48.7-33.2 10-4.4 14.5-6.9 26.3-14.9 14.5-9.8 17.3-12.9 17.3-19.3 0-6.7-3.6-10.9-16.9-19.7-12.7-8.4-18.4-13.5-23.7-21.3-3.7-5.5-5-9.7-5.5-17.9-.2-3.8-.6-6.4-1.1-8-.5-5.7-2.8-12.2-6.9-14.3-5.7-3-7.7-2.1-9.6-.9 6.4-7.2 8.5-10.6 10.6-16.8 3.7-11 2.9-23.3-3.5-55.3-7.4-37.2-20-63.8-46-97.2-16.5-21.3-23.2-31.9-39.3-62.1-8-15.1-10.3-20.3-12.2-28.4-2.8-11.7-4.1-22.2-6.2-52.1-2-27.9-3.4-39.4-6-49.1-6.9-26.4-27.6-46.4-56.5-54.7-12.3-3.5-17.6-4.2-34.2-4.2z" fill="#FFF"/>
        <path d="M355.569 220.469c0 13.947-16.615 16.893-24.673 21.894-7.501 6.946-50.679 26.562-62.126 26.562-18.393-3.89-40.787-31.341-43.677-49.568 0-10.613 13.503-19.115 21.06-26.062 7.502-6.946 16.171-13.503 30.953-10.724 11.447 0 29.34 5.445 36.842 12.392 15.003 5 41.621 8.224 41.621 25.506zM53.05 593.17c17.087 7.78 56.902 17.726 70.906 19.394 9.39 3.89 71.406 18.337 85.687 18.337 21.172-15.003 24.673-37.731 18.727-60.737-26.395-42.621-46.79-98.468-96.134-117.695-4.946 2.445-9.003 9.058-10.78 10.17-3.557 2.278-7.503 7.223-10.003 13.392-2.612 6.446-5.002 14.336-7.913 25.84-5.702 11.446-28.98 1.11-44.922 9.446-5.813 17.615 4.106 61.07-5.568 81.853zM512.385 527.876c10.669 8.725 27.395 15.226 34.953 29.73-14.393 17.17-26.785 23.228-45.011 31.896-25.006 11.892-40.677 23.062-52.124 30.841-11.447 10.003-38.01 16.115-50.068 14.448-7.613-5.001-16.17-65.738-13.392-85.576 0-10.558-12.947-52.846 7.78-78.63 20.06-3.835 37.287 14.503 50.012 27.006 10.502-7.057 27.118-17.893 39.676-20.616 4.112-.944 4.279-5.223 12.892-.722 4.112 2.167 6.502 8.946 6.946 14.726.723 9.335 1.667 29.118 8.336 36.897z" fill="#f8bf11"/>
	    <path fill="#000" d="M196.364 644.238c-7.002-1.112-15.837-3.89-36.509-12.225-23.339-9.447-32.286-11.67-57.403-17.227-16.17-2.778-38.848-8.613-43.277-10.391-4.006-1.612-8.169-4.946-9.441-7.669-.594-1.222-.906-3.39-.906-6.168 0-3.778.403-5.446 3.313-14.059 5.288-15.67 5.544-22.06 1.432-35.953-4.553-15.392-3.488-26.506 3.073-32.119 3.706-3.167 6.407-3.723 18.782-3.723 12.025 0 16.087-.611 20.744-3.167 5.362-2.945 8.38-7.391 11.936-17.616 2.278-6.612 3.779-9.224 5.223-9.224 1.167 0 2.168 2.89 2.168 6.39 0 3.112-3.501 16.226-5.224 19.616-1.834 3.668-4.334 6.502-7.218 8.169-5.38 3.167-15.743 4-27.112 2.278-7.263-1.167-11.43-.889-14.21.778-4.111 2.5-4.784 8.113-1.8 15.06 5.78 13.391 6.885 16.281 8.108 20.782 1.45 5.39 1.683 10.114.772 15.726-.906 5.557-2.5 9.058-7.218 15.67-2.434 3.446-4.662 7.113-4.957 8.225-.834 3 .395 5.279 3.706 7.001 2.812 1.39 42.91 11.781 71.24 18.172 8.724 2.222 24.617 6.112 35.286 8.89 10.725 2.779 21.839 5.002 24.728 5.557 8.947 1.112 17.227 0 22.95-3.334 7.947-5 13.504-16.504 14.17-29.896.445-8.835-1.5-16.782-6.668-27.062-3.945-7.89-5.89-10.947-24.617-39.232-33.063-49.79-47.4-66.405-59.625-68.96-3.946-.779-6.558-.334-11.837 2.055-5.056 2.279-6.779 2.39-8.002.556-1.166-1.778-2.111-11.725-1.778-18.949.39-8.39 2-13.392 8.113-25.284 12.114-23.45 17.06-34.675 25.34-57.236 8.502-23.117 11.947-29.507 25.34-46.956 7.334-9.502 16.225-22.06 22.505-31.73 2.39-3.612 7.001-10.336 10.28-14.948 9.336-13.114 9.78-14.337 8.891-25.506-1.334-16.837-3.556-73.295-3.556-91.744-.056-17.56.055-20.227 1.167-27.34 2.278-14.537 5.834-25.445 11.391-34.892 2.112-3.69 4.501-6.607 9.002-11.153 9.003-9.08 16.782-13.436 29.952-16.882 10.725-2.807 13.448-3.086 29.507-3.071 16.56.014 21.839.67 34.175 4.213 28.896 8.302 49.623 28.318 56.57 54.675 2.556 9.724 3.945 21.283 5.945 49.178 2.112 29.84 3.39 40.343 6.224 52.124 1.89 8.002 4.168 13.28 12.17 28.34 16.115 30.23 22.783 40.788 39.287 62.015 26.006 33.453 38.565 60.015 46.011 97.246 6.39 32.008 7.168 44.288 3.5 55.347-2.222 6.668-4.39 10.002-12.002 18.393-16.004 17.726-33.842 28.84-46.067 28.84-11.114 0-21.283-7.557-28.562-21.283-3.39-7.557-2.945-13.614-12.67-11.447-4.723 1.278-8.613 7.002-9.78 14.392-.89 5.28-.722 25.507.222 30.563.39 2.279 1.723 9.058 2.834 15.004 2 10.28 2.112 11.392 2.112 21.95 0 9.724-.222 12.67-1.834 23.339-1.5 10.002-1.778 13.448-1.611 18.893.222 6.335.333 6.946 2.222 10.892 2.279 5.001 7.28 10.558 11.614 13.336 9.558 6.113 22.895 6.669 34.12 1.112 3.167-1.667 7.78-5.001 15.559-11.114 12.614-10.225 22.005-16.726 29.118-20.338 2.723-1.334 9.28-3.835 14.56-5.557 21.893-7.057 31.896-11.28 37.453-15.893 6.612-5.39 9.78-11.225 8.613-15.615-1.5-5.446-7.78-9.335-20.616-12.67-9.67-2.556-12.003-3.723-15.949-8.057-3.5-3.834-6.223-9.336-8.224-16.67-1.945-7.17-2.222-18.783-.555-23.34 1.167-3.223 2.333-4.723 3.667-4.723 1.556 0 2.334 2.723 2.779 10.002.555 8.113 1.833 12.392 5.556 17.838 5.28 7.835 10.892 12.892 23.617 21.338 13.281 8.78 16.949 13.004 16.949 19.727 0 6.39-2.834 9.503-17.282 19.227-11.836 8.002-16.282 10.558-26.284 14.893-19.727 8.613-33.73 18.17-48.79 33.174-12.892 12.781-18.504 16.671-30.007 18.338-5.168.556-16.449.556-23.061-.555-14.004-1.667-21.617-6.669-28.007-18.338-4.057-7.224-5.946-8.891-10.836-9.447-2.112 0-25.45-.556-51.901-.556-43.455 0-48.679.556-54.291 1.112-15.226 2.778-22.728 6.112-36.287 17.226-7.668 6.668-11.17 8.891-14.892 10.558-3.057 1.112-9.892 1.667-13.17 1.112zm50.123-35.842c1.223-1.056 3.056-3.501 4.112-5.446 1.667-3.112 1.89-4.056 2.056-8.835.39-8.78-1.5-13.726-7.724-20.283-4.279-4.501-4.89-6.446-2.445-7.557 2.278-1 5.168.277 10.336 4.612 9.78 8.28 15.56 9.669 36.898 9.224 22.95-.555 35.453-2.945 48.067-9.28 8.169-4.112 13.559-8.78 20.394-17.837 4.834-6.335 7.001-8.502 9.724-9.614 4.501-1.89 6.89 1.778 6.78 10.503-.056 4.056-.5 6.612-2.334 13.392-5.001 18.06-6.557 28.229-5.168 33.397.833 3 3.445 5.279 5.835 5.057 1.667-.167 1.722-.278 2.167-3.501.222-1.834 1.167-8.058 2.111-13.893.89-5.779 2-13.28 2.501-16.67 1.167-8.78 2.056-36.009 2.112-65.572.055-25.506.055-25.561 1.389-29.451 1.056-3.001 2-4.501 4.168-6.669 3.39-3.334 6.557-4.556 13.725-5.056l4.78-.39.666-3.389c1.611-7.724 6.224-12.114 15.337-14.56 2.945-.777 5.89-1.055 12.225-1.055 9.169 0 11.725.556 20.005 4.557 3.723 1.778 6.946 2.39 6.946 1.333 0-.833-4.501-5.056-8.113-7.613-1.89-1.389-5.168-3.167-7.224-4-2.834-1.167-3.89-1.89-4-2.723-.112-.667.721-4.39 1.833-8.336 3.223-11.67 4.279-19.06 4.334-30.174.111-18.282-3.112-30.396-13.725-50.9-9.836-19.005-20.227-32.953-28.452-38.177-2.39-1.445-5.223-2.445-5.223-1.834 0 .223 2 3.168 4.39 6.613 11.336 16.06 23.117 36.565 28.118 49.068 4.056 10.002 7.113 23.56 8.057 35.897 1.612 20.227-3.89 37.51-13.336 41.732-1.89.89-4.001 1.223-8.614 1.334-7.335.278-8.335-.111-10.28-4l-1.389-2.78-.333-22.227c-.612-37.842-2.39-44.288-22.228-80.13-6.113-11.003-7.335-13.893-9.947-23.895-5.334-20.56-10.502-32.62-18.615-43.51-12.392-16.56-14.004-23.45-9.058-38.732 3.167-9.947 3.112-15.06-.223-18.45-2.445-2.5-4.334-3.389-15.503-6.945-16.949-5.39-24.784-10.225-26.951-16.615-2.167-6.28-.611-16.504 3.278-21.561 2.779-3.668 6.335-5.224 11.781-5.224 3.612.056 5.057.334 7.557 1.445 3.835 1.834 6.89 4.446 8.447 7.39 1.667 3.168 1.611 10.67-.111 16.171-2.834 8.947-2.723 8.002-.723 9.78 3.612 3.224 9.336 3.501 11.837.5 2.167-2.555 2.834-5.167 3.111-12.502.334-8.002-.5-13.337-3.778-23.395-4.501-13.781-9.002-17.782-22.617-20.005-10.169-1.667-15.726-.333-20.838 4.946-8.002 8.335-12.003 21.616-10.392 34.953.89 7.39.723 7.724-3.445 6.39-3.723-1.167-11.892-2.111-16.615-1.945-5.057.223-5.501-.222-5.501-5.89-.056-23.061-7.002-35.62-19.727-35.509-8.836 0-16.004 6.724-18.672 17.394-1.055 4.167-.833 16.115.334 23.06 2.39 13.67 7.557 20.506 11.614 15.171 1.667-2.278 3.112-5.168 3.112-6.113 0-.389-1.278-1.278-2.779-2-1.667-.778-3.167-2-3.834-3.112-3.168-5.057-4.723-14.114-3.39-18.949 1.723-6.113 10.114-9.891 15.893-7.168 4.89 2.334 10.113 13.114 9.558 19.893-.445 5.39-1.445 7.058-6.335 10.67-2.445 1.778-6.39 5-8.836 7.168s-5.445 4.668-6.668 5.557c-6.224 4.501-9.724 9.78-9.724 14.781 0 3.279 1.333 5.057 5.5 7.113 3.28 1.667 6.225 4.557 9.337 9.113 4.167 6.002 9.113 7.891 20.449 7.836 13.837-.056 26.228-3.001 49.456-11.67 12.614-4.723 16.115-6.224 16.838-7.335 2.056-3 4.445-5.112 5.89-5.112 1.945 0 3.668 1.833 3.668 3.834 0 3.39-5.224 6.168-23.34 12.336-5.334 1.834-13.614 5.168-18.337 7.39-9.558 4.558-12.225 5.502-18.505 6.725-5.168 1-17.115 1.111-23.672.222-5.335-.722-8.558-.333-8.28 1.056.278 1.445 12.614 11.058 15.448 12.114 4.001 1.39 11.892 1.667 17.004.5 7.725-1.667 32.12-12.17 44.233-18.949 4.057-2.278 6.335-3.223 7.78-3.223 2.445-.056 4.334 1.5 4.334 3.445 0 2.112-4.112 5.724-8.613 7.613-7.946 3.223-9.613 4.112-17.504 9.114-10.78 6.89-15.504 10.335-22.617 16.56-7.613 6.612-9.78 7.5-18.226 7.612-6.724.056-8.78-.611-13.17-4.39-3.445-2.945-11.67-13.17-14.003-17.449-2.445-4.445-7.891-10.613-9.336-10.613-.945 0-1.056.222-2.667 7.224-1.112 5.001-5.224 14.448-11.892 27.506-8.002 15.726-8.391 17.116-8.391 33.62 0 13.78.333 12.614-6.39 21.95-8.225 11.558-21.006 41.732-24.062 56.958-2.334 11.391-3.945 30.785-3.5 41.676.333 8.67-.112 11.225-2.168 12.503-2.111 1.334-4.612-.055-9.78-5.168-8.113-8.168-10.725-14.948-10.67-27.895.056-8.224.779-14.56 2.39-20.672 1.39-5.223 1.445-6.724.167-6.446-1.334.222-4.334 6.39-5.78 11.892-.888 3.279-1.222 6.668-1.444 13.559-.222 8.446-.167 9.669 1.167 15.56 1.667 7.39 4.834 14.28 9.224 20.06 6.724 8.89 40.788 39.12 63.46 56.402 5.446 4.112 11.503 9.28 13.503 11.447 12.003 13.003 9.67 24.895-6.723 34.064-2.557 1.445-4.668 2.723-4.668 2.834s2.111 3.056 4.668 6.446c9.39 12.67 14.836 21.95 16.726 28.451 1.278 4.28 1.222 10.447-.167 14.393-.556 1.778-.889 3.223-.667 3.223s1.39-1.112 2.612-1.945zm9.613-413.767c-1.722-3.278 1.5-6.112 7.002-6.112 1.945 0 3.668.222 3.834.555.39.667-1.5 1.667-3.167 1.667-1 0-1.556.556-2.39 2.39-.889 1.945-1.389 2.39-2.89 2.5-1.333.111-1.888-.11-2.389-1zm32.953-2.39c-3.223-1.166-5.724-2.778-5.112-3.39.166-.166 2.056-.444 4.167-.666 5.001-.444 6.89.278 6.89 2.5 0 1.112-.388 1.89-1.055 2.279-.611.278-1.167.556-1.278.5-.056 0-1.723-.556-3.612-1.222zM173.358 348c5.335-5.5 6.835-8.28 6.502-12.225-.167-2.723-1.223-3.667-3.445-3.112-1.612.39-2.501 2.057-3.946 7.113-.611 2.445-1.611 4.057-3.89 6.613-3.056 3.445-3.612 4.723-2.39 5.946 1.279 1.278 2.335.667 7.17-4.334zm213.719-93.8c1.167-.722 3.5-6.446 3.5-8.613 0-1.723-.333-2.5-1.722-3.779-.945-.889-1.945-1.611-2.223-1.611s-2.445-.89-4.834-2.056c-2.89-1.39-5.446-3.112-7.947-5.557-2-1.89-3.945-3.501-4.279-3.501s-.778.667-1 1.445c-.611 2.556.278 6.501 2.612 11.169 2 4.168 2.723 5.001 7.335 8.78 4.946 4.056 6.78 4.834 8.558 3.723zm-133.7-74.407c.667-1.722.5-3.056-1.222-8.669-.722-2.445-1.778-4.5-2.89-5.723-1.611-1.723-1.889-1.834-3.167-1.167-1.834 1-1.667 3.223.5 5.668 1.612 1.834 3 5.335 3.668 9.335.444 2.557 2.222 2.89 3.112.556zm78.297-1.556c1.223-1.445.334-8.335-1.333-10.891-1.723-2.612-5.724-5.001-8.891-5.335-2.112-.278-2.501-.111-3.112.945-.778 1.445-.39 1.89 2.334 2.723 3.445 1.111 6.612 5.834 7.446 11.058.333 1.945.611 2.334 1.611 2.334.723 0 1.556-.39 1.945-.834zm3.723-74.851c4.001-2.762 4.28-2.884 8.114-2.984 4.89-.128 5.945-.54 5.945-2.262 0-2.684-9.224-10.864-13.114-11.586-3.89-.734-5.279 1.378-6.057 9.286-.333 2.956-.722 4.19-2 5.773-1.723 2.184-2 3.468-.89 4.568 1.112 1.14 3.501.3 8.002-2.795z"/>

	</g>

</svg>