<?xml version="1.0" standalone="no"?>
<!DOCTYPE svg PUBLIC "-//W3C//DTD SVG 1.1//EN" "http://www.w3.org/Graphics/SVG/1.1/DTD/svg11.dtd">
<svg viewBox="0 0 500 500" style="background-color:#000" version="1.1"
  xmlns="http://www.w3.org/2000/svg" xmlns:xlink="http://www.w3.org/1999/xlink" xml:space="preserve"
>
<g id="0" stlye="display:none"><path fill="#fff" d="M400 368c-3 18-15 34-33 42-8 3-18 4-27 3s-18-4-28-9c-13-7-25-18-41-35 24-29 39-56 44-80 2-11 3-21 2-30-2-9-5-18-10-25a61 61 0 0 0-51-25c-21 0-39 9-51 25-5 7-8 16-9 25-2 9-1 20 2 30 5 24 20 51 43 80-15 17-28 28-41 35a58 58 0 0 1-55 6c-17-7-30-23-33-42-1-9 0-18 4-28l4-12 9-18c25-54 52-109 79-162l1-2 9-17 10-16a38 38 0 0 1 58 0l10 16 9 17 1 2c27 53 54 108 79 162l8 18 4 12c3 9 4 18 3 28zm-144-17c-19-25-32-48-36-67-2-9-2-16-1-22 0-6 3-11 6-16 6-9 18-15 31-15 14 0 25 5 32 15 3 5 5 10 6 16s0 14-1 22c-5 19-17 42-37 67zm163-19l-6-13-8-18v-1c-25-54-52-109-80-163l-1-2-9-17c-3-6-7-13-13-20a58 58 0 0 0-45-22c-18 0-35 8-47 22-5 6-9 13-12 19l-9 17-1 3c-28 54-55 108-80 162v1l-9 19-5 12c-5 14-6 26-4 39a77 77 0 0 0 85 65c12-1 24-5 36-12 15-8 29-20 45-37 16 17 30 29 45 37a95 95 0 0 0 45 13 76 76 0 0 0 76-66c3-12 1-25-3-38z"/>
</g>
<g id="1" stlye="display:none"><path fill="#fff" d="M293 184c-65 2-127 20-127 85 1 44 28 66 64 66 32 0 53-12 71-31 8 11 10 17 25 28 3 2 8 2 10-1l33-28c4-3 2-8 0-11-8-11-16-19-16-40v-67c0-28 2-54-19-73-17-16-39-21-64-22-56-1-92 29-97 65-1 6 4 9 7 9l39 6c6 1 9-5 10-9 6-23 30-29 45-24 21 7 19 30 19 47zm-38 109c-16 0-26-13-26-31 1-37 30-44 64-44v19c0 34-18 56-38 56zm175 111c14-11 27-40 26-59 0-8-1-9-8-11-14-4-48-5-65 11-3 3-2 5 1 5 12-2 47-6 52 2 5 7-8 36-12 49-2 5 2 6 6 3zM58 346c100 94 258 98 360 26 7-5 0-13-7-10-119 54-259 32-349-22-4-3-8 2-4 6z"/>
</g>
<g id="2" stlye="display:none"><path d="m419 349c-12 28-29 52-50 73a54 54 0 0 1 -36 16c-9 0-20-3-33-8a91 91 0 0 0 -72 0c-13 5-23 8-32 8-12 1-24-5-36-16-46-44-72-105-73-169 0-27 5-51 18-70 18-31 50-50 86-51 9 0 22 3 38 9s25 9 30 9c4 0 15-4 33-10 18-7 34-10 46-9 34 3 59 16 77 41a85 85 0 0 0 -45 76 85 85 0 0 0 55 82zm-78-305c0 20-7 39-22 56-18 21-40 33-63 31v-8a93 93 0 0 1 84-87z" fill="#fff"/></g>
<g id="3" stlye="display:none"><path d="M234 201.8l61.4 61.3a22.7 22.7 0 0 0 32.2-32l-61.4-61.5a114.7 114.7 0 0 0-161-1.1l-.6.6-.5.5-1.1 1.2a114.8 114.8 0 0 0 2.2 159.8l61.4 61.4a22.7 22.7 0 0 0 32.1-32.1l-61.4-61.4a69.2 69.2 0 0 1-.5-97.3 69.2 69.2 0 0 1 97.2.6zm79.3-81.8a22.7 22.7 0 0 0 0 32.2l61.4 61.3a69.3 69.3 0 0 1 .5 97.3 69.2 69.2 0 0 1-97.3-.6L216.6 249a22.7 22.7 0 1 0-32.2 32.1l61.4 61.4c44 44 115 44.6 159.8 2.2l1.2-1 .5-.7.6-.5 1.1-1.2a114.7 114.7 0 0 0-2.2-159.8L345.4 120a22.7 22.7 0 0 0-32.1 0z"/></g>
<g id="4" stlye="display:none"><path fill="#FF671B" d="M256 169.63A90.33 90.33 0 0 0 183.4 133c-49.84 0-90.4 40.77-90.4 90.83C93 306 202.08 409 256 409s163-103.06 163-185.17c0-50.06-40.56-90.83-90.4-90.83a90.42 90.42 0 0 0-72.6 36.63z"/></g>
<g id="5" stlye="display:none"><path d="M369 220c5-35-21-53-56-65l11-46-28-7-11 45-23-6 12-45-29-7-11 46-18-4-39-10-7 30 20 5c12 3 14 11 13 17l-13 52 3 1-3-1-18 74c-2 4-5 9-13 7l-20-5-14 32 36 9 20 5-11 47 28 7 11-46 22 5-11 46 28 7 12-46c48 9 84 5 99-38 12-35-1-55-26-68 18-4 32-17 36-41zm-64 90c-9 34-68 16-87 11l16-62c19 5 80 14 71 51zm8-91c-8 32-56 16-72 12l14-56c16 4 67 11 58 44z"/></g>
<g id="6" stlye="display:none"><path d="M268 97l-74 1h-1c-32 0-60 13-75 34a91 91 0 0 0-16 51l-2 126h-1v2c-1 30 5 58 24 78 20 20 48 26 76 26h115c27 0 53-9 72-28 18-19 26-46 27-74v-1l-1-37c-1-12-3-27-16-40a59 59 0 0 0-40-15h-5c3-13 3-26 2-37v-4c-2-41-36-81-84-82h-1zm-68 65l63 1a27 27 0 0 1 0 55l-64-1a27 27 0 0 1 1-55zm-8 125h128a27 27 0 1 1 0 55H192a27 27 0 1 1 0-55z"/></g>
<g id="7" stlye="display:none"><path fill="none" stroke="#fff" stroke-width="33" d="M157 153l187 188-90 110V60l90 104-187 184"/></g>
<g id="8" stlye="display:none"><path fill="#878787" d="M496 179l-1-1v-1l-1-2v-1l-1-1v-1a21 21 0 0 0-3-4h-1l-1-1-1-1L267 19c-6-4-16-4-22 0L25 166l-1 1a29 29 0 0 0-3 3h-1l-1 2v1l-1 1v1l-1 2v1l-1 1v154l1 1v1l1 2v1a26 26 0 0 0 2 3l1 1 1 1 1 1 1 1 1 1 220 147c3 2 7 3 11 3s8-1 11-3l220-147 1-1 1-1h1a19 19 0 0 0 4-6v-1l1-2v-1l1-1V179zM256 305l-73-49 73-49 73 49zm-21-134l-89 60-72-48L235 75zm-126 85l-52 35v-70zm37 25l89 60v96L74 329l72-48zm131 60l89-60 72 48-161 108zm126-85l52-35v70l-52-35zm-37-25l-89-60V75l161 108z"/></g>
<g id="9" stlye="display:none"><path d="M256 391v85A220 220 0 1 0 36 256h85a135 135 0 1 1 135 135H51v-55h55v120h65V306h85z"/></g>
<g id="10" stlye="display:none"><path d="M390 48H122c-23 0-41 18-41 41v271c0 22 18 41 41 41h227l-11-37 26 24 24 22 43 38V89c0-23-18-41-41-41zm-77 261l-13-16c26-7 36-24 36-24-8 6-16 9-23 12l-29 9a140 140 0 0 1-81-9l-15-7-2-1-1-1-5-3s9 16 35 24l-14 16c-44-1-61-30-61-30 0-65 29-117 29-117 29-21 56-21 56-21l2 3c-36 10-52 26-52 26l12-6c21-9 38-12 45-13h3a169 169 0 0 1 101 19s-16-15-50-26l3-3s27 0 56 21c0 0 29 52 29 117 0 0-17 29-61 30zm-93-93c-12 0-21 10-21 22s10 22 21 22 20-10 20-22-9-22-20-22m73 0c-12 0-21 10-21 22s10 22 21 22 20-10 20-22-9-22-20-22"/></g>
<g id="11" stlye="display:none"><path d="M257 493c-58 0-111-21-152-56L4 450l39-96A238 238 0 0 1 257 19c130 0 235 106 235 237S387 493 257 493zm129-238v-1c0-68-49-117-132-117h-90v237h89c84 0 133-50 133-119zm-131 61h-26V196h26c39 0 64 22 64 59v1c0 38-25 60-64 60z"/></g>
<g id="12" stlye="display:none"><path d="M288 242h49v-45h-50zm-59 0h49v-45h-49zm-59 0h50v-45h-50zm-59 0h50v-45h-50zm-59 0h50v-45H53zm59-54h50v-45h-50zm59 0h50v-45h-50zm59 0h49v-45h-49zm0-54h49V89h-49zm257 82c-11-7-36-10-55-6-3-18-13-34-31-48l-10-7-7 11c-9 13-14 32-12 50 1 6 3 17 9 27-6 4-19 8-36 8H17l-1 4c-3 18-3 75 33 118 28 33 70 50 124 50 118 0 205-54 246-153 16 0 51 0 68-34l5-9 2-4"/></g>
<g id="13" stlye="display:none"><path d="m256 142-112 71 112 71-112 72-113-72 113-71-113-71 113-72zm-113 237 113-72 112 72-112 72zm113-95 112-71-112-71 112-72 113 72-113 71 113 71-113 72z" fill="#007ee5"/></g>
<g id="14" stlye="display:none"><path d="M122 133h38c2 0 4-1 4-3l-1-42c0-7 2-13 4-19l2-2h-1l-73 72v1l4-2c6-3 14-5 23-5zm292-7c-3-16-12-24-21-27a400 400 0 0 0-106-11c-2-12-10-22-18-25-23-10-59-7-68-5-8 2-16 6-20 13-3 4-5 10-5 17v42c0 8-6 14-15 14h-37c-8 0-14 2-19 4s-8 5-10 8c-5 7-6 15-6 24l1 20c2 10 13 83 24 105 4 9 7 12 15 16 18 8 59 16 79 19 19 2 31 7 39-8l3-9c6-19 7-36 7-48 0-1 2-2 2 0 0 8-2 39 21 47 10 3 28 6 48 9 17 2 30 8 30 53 0 27-6 31-36 31-24 0-33 1-33-19 0-15 15-14 27-14 5 0 1-3 1-13 0-9 6-15 0-15-39-1-62 0-62 49 0 45 17 53 73 53 43 0 59-1 77-57 4-12 12-45 17-102 4-36-3-144-8-171zm-76 119l-16 1c2-11 6-24 23-24 17 1 20 18 20 29-8-3-17-5-27-6z"/></g>
<g id="15" stlye="display:none"><path fill="#fff" d="M287 456V157c0-21 6-35 35-35h38V59c-7-1-29-3-55-3-54 0-91 33-91 94v306m143-254H152v72h196"/></g>
<g id="17" stlye="display:none"><path stroke="#3d515b" stroke-width="72" d="M75 111h220H75zm289 0h72-72zM75 256h364H75zm0 142h144H75zm220 0h144-144z"/></g>
<g id="18" stlye="display:none"><path fill="#fff" d="M119 255c17 30 49 48 102 53-8 6-17 17-18 30-10 6-29 8-44 3-21-7-29-48-61-42-7 1-6 6 0 10 10 6 21 16 26 30 12 31 37 39 77 33v45c0 14-20 18-20 25 0 3 7 3 12 3 10 0 32-9 32-23 0-12 0-52 1-59 0-15 8-20 8-20s1 82-2 92c-4 13-10 11-10 17 0 9 26 2 35-17 7-15 4-95 3-94h7s0 37 1 53c0 17-1 39 9 50 7 7 29 19 29 8 0-6-12-12-12-29v-79c10 0 8 26 8 26l1 48s-2 18 19 25c8 3 24 3 25-1s-20-11-20-25v-49c0-36-5-49-22-60 53-5 86-18 102-53 10-20 12-44 12-62 0-50-24-67-29-76 7-38-1-55-5-60-14-5-48 12-66 24-30-9-94-8-118 2-44-31-67-26-67-26s-15 27-4 66c-15 18-25 31-26 65 0 27 3 44 15 67z"/></g>
<g id="19" stlye="display:none"><path fill="#fff" d="M389 77c-3-7-13-7-15 0l-44 136H182L138 77c-2-7-12-7-15 0L57 282c-2 6 0 13 5 17l194 141 194-141c5-4 7-11 5-17z"/></g>
<g id="20" stlye="display:none"><path fill="#fff" d="M56 257a126 126 0 0 1 212-96l-33 33c-21-13-49-24-75-14a80 80 0 1 0 54 151c21-8 35-28 41-48l-72-1v-44h122c1 36-3 74-27 102a127 127 0 0 1-222-83zm327-56h36l1 37h36v37h-36l-1 36h-36v-36h-37v-37h37z"/></g>
<g id="21" stlye="display:none"><path fill="#fff" d="M101 56h61l94 192 94-192h61L282 311v145h-52V311"/></g>
<g id="22" stlye="display:none"><path fill="#1f70c1" d="M26 164v13h90v-13zm102 0v13h128s-13-13-30-13zm153 0v13h77l-5-13zm132 0l-4 13h76v-13zM26 188v13h90v-13zm102 1v12h143s-2-10-5-12zm153 0v12h86l-5-12zm123 0l-4 12h85v-12zM52 213v13h39v-13zm102 0v13h39v-13zm76 0v13h39s3-7 3-13zm77 0v13h68l-4-13zm89 0l-5 13h69v-13zM52 237v13h39v-13zm102 0v13h99s8-6 11-13zm153 0v13h38v-7l3 7h71l2-7v7h39v-13h-73l-3 11-4-11zM52 262v13h39v-13zm102 0v13h110c-3-7-11-13-11-13zm153 0v13h38v-13zm45 0l5 13h53l5-13zm69 0v13h39v-13zM52 286v13h39v-13zm102 0v13h39v-13zm76 0v13h42c0-6-3-13-3-13zm77 0v13h38v-13zm54 0l5 13h35l5-13zm60 0v13h39v-13zM27 311v13h89v-13zm101 0v13h138c3-3 5-13 5-13zm154 0v13h63v-13zm88 0l5 13h18l4-13zm51 0v13h65v-13zM27 335v13h89v-13zm101 0v13h98c17 0 30-13 30-13zm154 0v13h63v-13zm97 0l4 13h1l5-13zm42 0v13h65v-13z"/></g>
<g id="24" stlye="display:none"><path fill="#0071c5" d="M157 232v77h-24v-97h51c21 0 29 15 29 29v68h-25v-68c0-6-3-9-10-9h-21zm168-1c-8 0-15 4-17 10-2 3-3 6-3 10h38c0-10-5-20-18-20m-20 37c0 13 8 22 22 22 11 0 16-3 23-9l15 14a49 49 0 0 1-38 16c-24 0-46-13-46-51 0-32 19-50 45-50 27 0 42 21 42 49v9h-63m-45 41c-20 0-29-14-29-28v-96h25v27h18v20h-18v48c0 5 2 9 8 9h10v20h-14M111 198H86v-23h25zm0 112c-19-2-25-13-25-26v-72h25v98zm296-2c-19-2-25-13-25-26V171h25zm87-121C471 78 258 71 121 154v9c137-70 332-70 349 32 6 33-12 68-46 88v26c40-15 82-63 70-122M244 380c-95 8-194-5-208-80-6-36 10-75 32-99v-13c-39 35-61 79-48 131 15 67 100 105 230 93 51-5 118-22 165-47v-37c-43 25-113 46-171 52m192-201c0-1-1-2-3-2h-1v4h1c2 0 3-1 3-2zm2 8h-2l-3-4h-1v4h-3v-11l1-1h3c3 0 5 1 5 4 0 2-1 3-2 3l2 5m-4-14c-5 0-8 4-8 8a8 8 0 1 0 8-8m0 18a10 10 0 1 1 0-20c5 0 10 5 10 10 0 6-5 10-10 10"/></g>
<g id="25" stlye="display:none"><path d="m170 142v225l60-110 115-115-115 115 115 110" fill="none" stroke="#034752" stroke-linecap="round" stroke-linejoin="round" stroke-width="210"/></g>
<g id="27" stlye="display:none"><path fill="#fff" d="M250 183c-48 0-72 36-72 77 0 46 30 75 71 75 45 0 76-33 76-78 0-46-35-74-75-74zm-1-39c31 0 59 13 80 34 0-23 37-23 37 1v158c-1 10 11 16 17 9 26-26 56-134-15-196-67-59-156-49-204-16-50 35-83 112-51 184 34 79 132 103 190 79 30-12 43 28 13 41-47 20-176 18-236-86-40-71-38-194 70-259 82-49 191-35 256 33 69 72 65 206-2 258-30 24-75 1-75-34v-11c-21 21-49 33-80 33-60 0-113-53-113-113 0-61 53-115 113-115"/></g>
<g id="28" stlye="display:none"><path fill="#fff" d="M122 171c1-4-1-8-4-11l-32-39v-5h99l78 169 67-169h95v5l-27 27c-2 1-4 4-3 7v194c-1 3 1 6 3 7l27 27v6H290v-6l28-27c2-3 2-4 2-8V192l-77 196h-10l-90-196v131c-1 6 1 11 5 15l36 44v6H81v-6l37-44c3-4 5-9 4-15z"/></g>
<g id="29" stlye="display:none"><path fill="#fff" d="M412 108c69 12 27 99 10 133-11 23-64 114-18 128 14 4 32 1 43 11 20 18 2 33-16 37-20 5-45 0-63-9-61-26-46-93-20-138 12-25 34-52 39-72 3-17-15-33-30-15-10 11-18 29-24 42-7 14-42 90-42 90-6 12-18 30-29 40-19 14-50 5-45-20 7-41 71-138 27-144-16-2-21 16-26 27-9 19-14 40-24 59-11 22-19 44-24 68-4 19-11 44-32 49-60 16-78-23-78-23-10-31-1-58 9-88 7-23 11-47 21-69 16-39 32-120 92-115 15 2 32 10 45 17 35 23 47-18 70-22 18-4 29 3 40 12 18 16 24 8 35 5s26-6 40-3z"/></g>
<g id="30" stlye="display:none"><path d="M16 163.3h480v160H256V350H149.3v-26.7H16zm26.7 133.4H96v-80h26.7v80h26.7V190H42.7zM176 190v133.3h53.3v-26.7h53.3V190zm53.3 26.7H256V270h-26.7zm80-26.7v106.7h53.3v-80h26.7v80H416v-80h26.7v80h26.7V190z"/></g>
<g id="31" stlye="display:none"><path fill="#3da639" stroke="#1d531d" stroke-linejoin="round" stroke-width="18" d="M170 480a240 240 0 1 1 170 0l-53-146a84 84 0 1 0-63 0z"/></g>
<g id="32" stlye="display:none"><path fill="#ff5900" d="M256 81c-97 0-175 78-175 175v175h41V256a134 134 0 1 1 140 134c-22 0-42-4-50-9v-58c12 9 28 14 44 14a80 80 0 1 0-81-81v175h81a175 175 0 1 0 0-350z"/></g>
<g id="33" stlye="display:none"><path fill="none" stroke="#fff" stroke-width="27" d="M257 109c-2-62-50-47-48 11 3 70 29 90 68 139 49 62 86 97 116 105 45 12 70-26 26-45-43-19-122-13-167-6-74 12-127 33-168 79-36 40-4 70 32 35 33-31 77-116 95-156 24-53 51-100 46-168z"/></g>
<g id="34" stlye="display:none"><path fill="#fff" d="M265 56c-109 0-164 78-164 144 0 39 15 74 47 87 5 2 10 0 12-5l4-19c2-6 1-8-3-13-9-11-15-25-15-45 0-58 43-110 113-110 62 0 96 38 96 88 0 67-30 122-73 122-24 0-42-19-36-44 6-29 20-60 20-81 0-19-10-35-31-35-25 0-44 26-44 60 0 21 7 36 7 36l-30 125c-8 37-1 83 0 87 0 3 4 4 5 2 2-3 32-39 42-75l16-64c8 16 31 29 56 29 74 0 124-67 124-157 0-69-58-132-146-132z"/></g>
<g id="35" stlye="display:none"><path fill="none" stroke="#fff" stroke-width="68" d="M56 89c203 0 367 164 367 367m-133 0c0-128-105-234-234-234"/></g>
<g id="36" stlye="display:none"><path fill="#FFF" d="M322.7 357c-19 12.7-42 20-66.7 20-47.5 0-88.6-27.2-108.4-67-10-5.3-19.2-10.8-27.4-16.4C136.6 353 191.2 397 256 397c38.5 0 73.3-15.5 98.8-40.6-10 1-20.7 1-32 .7zm-185.2-76c-8-5-15.5-10-22-15.2-24.3-19.2-36.8-39.4-32-56.5 4.5-17 25.4-28 56-32.4 25.2-37.7 68-62 116.5-62 74.7 0 135.8 58 140.6 131.5 24.2 19.3 36.7 39.4 32 56.5-4.6 17-25.7 28.3-56.5 32.6-8 1-17 1.8-26.4 2-31.2.5-68.5-4.3-107.4-15-39-10.5-74-25.4-100.4-41.7zM361 316.5c10-17.5 16-38 16-59.6v-1c0-67-54-121-121-121-44.5 0-83.3 24-104.4 59.5-10.6 18-16.7 39-16.7 61.3 25 16.7 63 33.3 107 45.3 45.6 12.5 88 17.4 118.6 15zm24-4c12.3-3.5 20-9.2 22.2-16.8 2-7.8-2-16.8-11-26.2v1.8c-1.7 14.5-5.5 28.4-11 41.2zM128 197l1-2c-14.4 3.5-23.5 9.5-25.8 17.8-2.2 8.3 2.5 18 12.7 28 1.3-15.4 5.4-30 12-43.7z"/></g>
<g id="37" stlye="display:none"><path fill="#fff" d="M71 223C45 366 176 464 289 441c119 58 202-70 152-152C466 144 334 48 223 71 104 13 21 141 71 223m264-46c17 25-18 45-31 30-17-20-35-30-54-29-48 4-46 44-5 50 57 8 108 24 104 74-5 57-51 73-99 70-56-4-74-24-85-45-13-25 24-49 40-22 25 41 71 35 85 19 22-25-1-41-25-45-27-5-54-11-75-22-33-17-47-101 40-115 39-6 86 6 105 35"/></g>
<g id="38" stlye="display:none"><path fill="#fff" d="M200 423c-19-14-34-21-70-15-5 1-14 4-15-5-2-8-3-19-8-20-32-5-44-11-49-17-2-2-4-8 1-9 56-10 82-64 87-75 7-15-4-25-24-31-9-3-25-8-25-18 0-5 5-9 10-11 4-1 9-2 13 0 13 6 24 8 31 2-1-28-8-64 4-94 13-32 47-62 101-62s88 30 101 62c12 30 5 66 4 94 7 6 18 4 31-2 4-2 9-1 13 0 5 2 10 6 10 11 0 10-16 15-25 18-20 6-31 16-24 31 5 11 31 65 87 75 5 1 3 7 1 9-5 6-17 12-49 17-5 1-6 12-8 20-1 9-10 6-15 5-36-6-51 1-70 15-16 12-34 22-56 21-22 1-40-9-56-21z"/></g>
<g id="39" stlye="display:none"><path fill="#fff" d="M59 275l-3 22 3 22c0 2 3 2 3 0l3-22-3-22c0-3-3-3-3 0zm18-14c0-3-3-3-3 0l-5 36 4 35c0 3 4 3 4 0l4-35zm59-30l-3 66 2 40c0 8 7 8 7 0l4-40-4-66c0-5-6-5-6 0zm-31 22l-4 44 3 40c0 6 5 6 5 0l4-40-4-44c0-3-4-3-4 0zm70 84l3-40-3-88c0-6-7-6-7 0l-3 88 2 40c0 8 8 8 8 0zm68 0l2-40-2-102c0-7-10-7-10 0l-2 102 2 40c0 8 10 8 10 0zm-34 0l3-40-3-89c0-6-9-6-9 0l-2 89 2 40c0 8 9 8 9 0zm-83 0l3-40-3-41c0-3-6-3-6 0l-3 41 3 40c0 7 6 7 6 0zm-33 0l4-40-4-43c0-3-4-3-4 0l-4 43 4 40c0 4 4 4 4 0zm124-125l-2 85 1 40c0 8 10 8 10 0l2-40-2-85c0-7-9-7-9 0zm-58 125l3-40-3-81c0-6-7-6-7 0l-3 81 2 40c0 8 8 8 8 0zm33 0l3-40-3-91c0-6-8-6-8 0l-3 91 3 40c0 8 8 8 8 0zm196-89c-5-57-64-94-118-73-4 2-5 3-5 6v156c0 3 2 6 5 6h137c27 0 49-22 49-49 0-37-35-57-68-46zm-138-62l-3 111 3 40c0 8 10 8 10 0l3-40-3-111c0-7-10-7-10 0z"/></g>
<g id="40" stlye="display:none"><path d="M266.4 189.5v1.4l-68.8 100c-11.1-.5-22.3 1.4-32.9 5.8-4.7 1.9-9.1 4.2-13.2 7L.4 241.4s-19.6 51.4-5 94.3l122.9 50.2c5.4 24 21.8 45 46.1 55.1 39.7 16.6 85.5-2.3 102-42 4.3-10.4 6.3-21.3 6-32.1l98.5-70.4h2.4c58.8 0 106.7-48 106.7-107s-47.9-107-106.8-107-106.8 48-106.8 107zm-16.5 202.6a60.28 60.28 0 0 1-78.7 32.5 60.39 60.39 0 0 1-31-29.5l34.8 14.4c22.6 9.4 48.5-1.3 57.9-23.9s-1.3-48.6-23.9-58l-35.9-14.9c13.9-5.3 29.6-5.5 44.4.7 14.9 6.2 26.4 17.8 32.5 32.7s6.1 31.3-.1 46.1m123.3-131.3c-39.2 0-71.2-32-71.2-71.3s31.9-71.3 71.2-71.3c39.2 0 71.2 32 71.2 71.3s-31.9 71.3-71.2 71.3m-53.3-71.5c0-29.6 23.9-53.6 53.4-53.6s53.5 24 53.5 53.6-23.9 53.5-53.5 53.5c-29.5 0-53.4-24-53.4-53.5z"/></g>
<g id="41" stlye="display:none"><path fill="#fff" d="M429 90L76 227c-25 9-24 23-5 28l88 28 34 104c4 11 2 15 13 15 9 0 13-4 19-9l44-43 91 68c18 10 29 4 34-16l60-284c6-24-9-35-25-28zM173 277l198-126c11-6 20-3 12 4L212 308l-6 72z"/></g>
<g id="42" stlye="display:none"><path d="M313 123c29 45-14 102-55 127 7-11 12-22 14-35m-5 126c20 7 33 24 32 49 0 9-7 16-16 16h-54c-9 0-16-7-16-16-1-25 12-42 32-49"/><circle cx="256" cy="311" r="32"/></g>
<g id="44" stlye="display:none"><path fill="#fff" d="M373 431c-14 15-45 25-73 25h-3c-95 0-115-69-115-110V234h-37a8 8 0 0 1-8-8v-53a13 13 0 0 1 9-13c48-17 63-59 66-91 0-9 5-13 12-13h56a8 8 0 0 1 7 8v90h65a8 8 0 0 1 8 8v63a8 8 0 0 1-8 8h-65v104c0 26 17 34 28 34 10-1 20-4 25-6l10-2c3 1 5 3 6 7l17 50c2 4 3 8 0 11z" class="cls-1"/></g>
<g id="45" stlye="display:none"><path d="m465 135c-14 7-31 11-47 13 17-10 30-27 37-46-15 10-34 16-52 20a83 83 0 0 0 -141 75c-68-3-129-35-169-85a80 80 0 0 0 26 109c-13 0-26-4-37-9 0 39 28 72 65 80-12 3-25 4-37 2 10 33 41 57 77 57-42 30-77 38-122 34 170 111 378-32 359-208 16-11 30-25 41-42z" fill="#fff"/></g>
<g id="46" stlye="display:none"><path d="m432 266v-20h-64v20zm-254 126 18 10 32-55-18-10zm18-283-18 11 32 55 18-10z" fill="#e65e17"/></g>
<g id="47" stlye="display:none"><path d="m444 173c-22 126-147 233-185 257-37 24-72-10-84-35-14-30-57-189-68-202-11-14-45 13-45 13l-16-22s68-81 120-91c55-11 55 84 68 137 13 51 21 80 32 80s33-28 56-72c24-43-1-82-47-55 19-109 191-136 169-10z" fill="#fff"/></g>
<g id="48" stlye="display:none"><path fill="#fff" d="M275 369c6-1 15-3 15-15 0 0-1-32 14-37 15-4 34 31 54 45 15 10 26 8 26 8l54-1s28-2 15-24c-1-2-9-16-41-45-33-31-28-26 12-80 24-33 35-53 31-61-4-7-21-6-21-6h-60c-6 0-10 1-13 7 0 0-9 26-22 47-27 46-37 48-42 45-10-6-8-26-8-40 0-47 7-64-14-68-6-1-11-2-27-2-21 0-40 0-50 5-7 4-12 11-9 12 4 1 13 2 18 8 6 9 6 27 6 27s4 52-8 59c-8 4-19-5-43-46-12-21-22-45-22-45-3-7-6-8-13-10H69c-7 0-16 1-12 14 0 0 45 105 96 158 46 48 99 45 99 45z"/></g>
<g id="49" stlye="display:none"><path fill="#fff" d="M448 268c-10-23-29-41-51-52-39-20-88-20-127 0-28 14-50 39-57 70-5 22 0 46 12 66 17 29 49 48 83 54 24 5 48 2 72-5 14 6 26 14 40 21l-11-35c15-11 29-24 37-41 13-24 13-53 2-78zm-136 9c-4 11-19 14-27 6-9-8-5-24 6-27 12-5 26 9 21 21zm80 2c-4 10-19 12-26 4-4-3-5-8-6-12 2-8 7-15 15-16 12-1 23 13 17 24zM283 111c-42-24-93-27-138-11-30 11-56 30-73 57-14 24-20 54-13 82 7 31 29 56 54 73l-14 43 49-26c20 6 40 9 61 9-5-16-7-33-4-50 4-22 16-43 33-59 29-27 70-38 109-35-8-36-33-66-64-83zm-111 64c-3 14-22 21-33 12-13-9-9-31 6-36 14-6 31 9 27 24zm100-4c1 16-21 26-33 15-12-9-9-30 6-35 13-5 29 6 27 20z"/></g>
<g id="50" stlye="display:none"><path d="M348 291a770 770 0 0 0-32-15c-4-2-7-3-10 2l-15 18c-3 3-5 4-10 1-4-2-19-7-37-23a139 139 0 0 1-26-32c-2-4 0-7 3-9l7-8 4-8c2-3 1-5 0-8-2-2-11-25-15-34-3-9-7-8-10-8h-9c-3 0-8 1-12 6-4 4-16 15-16 38s16 45 19 48c2 3 32 50 78 69l27 10c11 4 21 3 29 2 9-1 27-11 31-22s4-20 3-22l-9-5m-84 115c-28 0-55-8-79-22l-5-3-58 15 15-56-3-6a154 154 0 0 1 238-190 154 154 0 0 1-108 262m130-284a183 183 0 0 0-130-54 185 185 0 0 0-160 276l-26 96 97-26a185 185 0 0 0 219-292" fill="#fff"/></g>
<g id="51" stlye="display:none"><path fill-rule="evenodd" d="M398 127a191 191 0 0 0-284 0zM114 384a191 191 0 0 0 284 0zM85 143c-47 0-85 38-85 85v55c0 47 38 85 85 85h342c47 0 85-38 85-85v-55c0-47-38-85-85-85zm418 84c0-41-33-75-75-75h-85c-41 0-75 34-75 75v57c0 42-34 76-75 76h235c42 0 75-34 75-76zm-295 5v81h24v-81zm-2-25a14 14 0 1 0 29 0 14 14 0 0 0-29 0zM44 196l31 117h20l24-81 23 81h21l31-117h-23l-18 77-23-77h-21l-23 75-17-75zm262 0v117h26v-46h58v-24h-58v-24h62v-23zm106 36v81h24v-81zm-2-25a14 14 0 1 0 28 0 14 14 0 0 0-28 0z"/></g>
<g id="52" stlye="display:none"><path fill="#fff" d="M57 130l-1 1v7c0 2 2 3 5 3 21 1 21 5 29 24l94 205c7 15 17 17 26-1l47-92 44 92c8 16 17 17 25 0l90-203c8-18 20-25 37-25 2 0 3-1 3-3v-7l-1-1h-83l-1 1v7c0 2 2 3 4 3 11 0 30 2 22 20l-73 173-3-1-45-92 38-75c9-16 11-25 27-25 2 0 4-1 4-3v-7l-1-1h-67l-1 1v7c0 3 4 3 7 3 19 1 17 8 11 20l-29 58-26-54c-9-17-11-22 2-23 4-1 9-1 9-4v-7l-1-1h-72l-1 1v8c0 2 2 2 5 2 12 2 12 3 24 27l42 88-39 78-3-1-80-174c-8-18 3-17 19-18 3 0 3-1 3-3v-7l-1-1z"/></g>
<g id="53" stlye="display:none"><path d="M65 121l154-21v149H65M237 97l204-29v179H237M65 264h154v149L65 392m172-126h204v178l-204-29" fill="#fff"/></g>
<g id="54" stlye="display:none"><path fill="none" stroke="#000" stroke-width="23" d="M69 103v193c0 149 222 149 222 0V138c-2-46-68-46-70 0v158c0 149 222 149 222 0V103"/></g>
<g id="55" stlye="display:none"><path fill="#fff" d="M204 436l56-164 58 159 29-16 56-162c10-26 13-47 13-65 1-33-13-62-37-65-22-2-34 19-33 32 2 30 32 47 32 88 0 30-19 77-32 122l-65-194c11-1 21-1 21-1 10-1 9-16-1-15-33 3-63 2-96 0-10-1-11 14-1 15 0 0 9 0 19 1l28 77-40 119-65-196c11-1 20-1 20-1 10-1 9-16-1-15-30 2-59 4-66-1l-9 25 88 243z"/></g>
<g id="56" stlye="display:none"><path d="M392 80l-3 6-11 16-27 45-12 20-25 42-9 16-25 43-24 43v14a1638 1638 0 0 0 2 102l1 51v3l-3-1a82 82 0 0 0-25-3 98 98 0 0 0-25 3l-3 1v-3l2-51 1-41 1-61v-14l-25-43-24-43-9-16A4589 4589 0 0 0 74 86l-4-6 7 2a90 90 0 0 0 50 0h2l1 1c15 28 57 97 82 139l19 31 19-31 83-139 1-1h2a92 92 0 0 0 50 0zm-10 317l-10-3h-10l10-80 6-64 12-137c6-48 63-28 51 8l-31 135-14 63z"/></g>
<g id="57" stlye="display:none"><path fill="#265495" d="M487.21 238.2c-.88-.04-1.8-.05-2.77-.05-16.14.03-132.25 12.77-126.43 24.6 5.8 11.7 77.3 17.4 128.26 17.41a21.42 21.42 0 0 0 17.68-22.54 21.45 21.45 0 0 0-16.74-19.42M447.84 361c-44.7-24.48-110.1-53.92-120.83-46.42-10.8 7.56 84.86 74.6 99 82.38l2.45 1.3a21.45 21.45 0 0 0 24.03-8.99c5.96-9.3 3.8-21.5-4.65-28.27m0-201.53a21.42 21.42 0 0 0 4.65-28.26 21.45 21.45 0 0 0-24.03-8.99c-.77.4-1.58.83-2.44 1.3-14.15 7.8-109.8 74.82-99 82.38 10.72 7.5 76.13-21.94 120.82-46.43zM179.83 338.91c-13.3 37.55-25.61 55.13-53.9 55.13-2.73 0-12.24-.56-12.86-.61a19.79 19.79 0 0 0-6.44 38.77c7.5 1.31 15.2 1.8 22.1 1.8 52.13 0 69.37-30.01 86.58-73.83L317 106.47a21.87 21.87 0 0 0-14.15-27.45 21.84 21.84 0 0 0-27.13 13.28l-71.47 188.87h-1.12l-75.17-190.3a23.09 23.09 0 0 0-42.82 17.07z"/></g>
<g id="58" stlye="display:none"><path d="M256 268l57-160.8h82l-138 340h-87l39.6-93-97-247h84z"/></g>
</svg>